<svg width="80" height="86" viewBox="0 0 80 86" fill="none" xmlns="http://www.w3.org/2000/svg">
<circle cx="40" cy="40" r="40" fill="#DDECE1"/>
<path d="M67.3 65.05L66.425 44.7L61.05 33.5L52.25 28.5L28.35 28.7L17.075 36L12.3 44.325L11.225 53.65L13.475 64.75L10.75 72.075L14 75.15L24.7 76.9H26.25L26.8 73.5L28.15 73.65H28.35L32.35 74.1L32.85 76.425L33.775 77.675L38.05 79.2L39.925 79.475L41.65 78.825L43.975 78L45.325 76.55L46.55 74.5L48.925 73.7L49.85 73H50.1L50.425 77.225L61.6 76.075L69.4 71.3L67.3 65.05Z" fill="white"/>
<path d="M31.775 27.925L34 32.1L41.875 31.15L49.45 32.25L52.175 29.05L52.325 25.775L49.25 24.65L47 26.05L45.7 22.175L42.325 19.95L38.575 20.6L36.025 24.7L33.25 23.8L31.775 25.075V27.925Z" fill="#E1D8C7"/>
<path d="M27 73.425L29.6 74.175L32.35 74.275L32.725 76.4L34.5 78.275L39.625 79.7L41.15 79.1L43.85 78.2L45.2 76.95L46.55 74.675L48.15 74.1L50.1 73.125L50.425 75.45L50.1 78.325L48.225 80.55L44.7 81.175L40.35 80.775L37.225 81.575H33.925L30.325 80.75L27.475 78.55L26.625 76.275V74.4L27 73.425Z" fill="#FEE9BE"/>
<path d="M22.675 51.75L23.625 54.575L25.625 57.55L29.125 60.45L32.65 61.725L36.025 62.4L36.675 63.925L35.7999 65.4L33.2999 67.15L29.325 69.525L31.425 70.7L35.425 71.85L39.025 72.075L43.0249 71.9L45.75 70.725L47.8499 69.4L45.7 68.225L43.225 66.825L41.7 65.65L41.1749 63.85L40.925 62.25L44.4 61.725L48.775 59.625L52.075 57.025L54.9249 53.65L56.75 50L57.2249 48.5L59.875 48.375L61.5999 47.45L62 46.2L60.825 44.7L59.65 44.275L57.9249 44.7L56.875 42.7L45.9 32.4L40.05 37.425L29.325 43.5L22.875 45.55L21.65 46.575L19.6 46.775L17.575 47.375L17.075 48.5L17.575 49.8L19.9 50.625L22.275 50.35L22.675 51.75Z" fill="#FEE9BE"/>
<path d="M26.375 49.0499C27.125 50.8749 29.525 49.7249 29.3 47.9999C29.175 45.7749 25.5 46.8249 26.375 49.0499Z" fill="#4D4D4D"/>
<path d="M49.85 48.85C50.1252 49.1484 50.5076 49.3253 50.9131 49.3417C51.3187 49.3581 51.7141 49.2127 52.0125 48.9375C52.3109 48.6624 52.4877 48.28 52.5041 47.8744C52.5205 47.4689 52.3752 47.0734 52.1 46.775C50.725 45.1 48.4 47.425 49.85 48.85Z" fill="#4D4D4D"/>
<path d="M48.05 43.6249H48.5C49.8014 43.3865 51.1435 43.5163 52.375 43.9999C52.75 44.1749 54.325 45.7999 54.625 45.0749C54.775 44.7249 54.05 44.1749 53.8 43.9999C52.7094 43.1659 51.3729 42.7175 50 42.7249C49.575 42.7249 48.05 42.7249 47.775 42.8999C47.5 43.0749 47.5 43.6999 48.05 43.6249Z" fill="#5E8166"/>
<path d="M42.175 58.925C42.675 58.5 43.65 56.15 42.425 57C41.85 57.4 41.975 58.3 41.05 58.65C40.3634 58.8982 39.6116 58.8982 38.925 58.65C38.175 58.375 37.8 57.225 37.275 57.05C36.275 56.75 36.775 57.825 37.075 58.275C37.6713 59.0286 38.5391 59.5187 39.4924 59.6402C40.4457 59.7617 41.4087 59.505 42.175 58.925Z" fill="#4D4D4D"/>
<path d="M11.225 68.5C10.775 69.725 8.72499 71.75 9.67499 72.975C11.1914 74.6485 13.0333 75.995 15.0881 76.9321C17.1428 77.8692 19.3671 78.3772 21.625 78.425C22.2 78.425 24.55 78.025 25.025 78.425C25.5 78.825 25.9 80.05 26.25 80.425C27.9707 81.9943 30.1757 82.9292 32.5 83.075C34.6392 83.3801 36.816 83.2954 38.925 82.825C39.6901 82.5709 40.4766 82.3868 41.275 82.275C42.375 82.275 43.575 82.65 44.7 82.7C46.7137 82.8506 48.7086 82.2244 50.275 80.95C50.8671 80.321 51.4262 79.6618 51.95 78.975C52.55 78.375 52.225 78.5 53.2 78.6C53.9241 78.6499 54.6508 78.6499 55.375 78.6C59.9255 78.5485 64.3502 77.0997 68.05 74.45C68.9 73.825 70.55 72.675 70.75 71.525C70.95 70.375 69.65 68.1 69.25 66.825C68.2986 62.6123 67.9701 58.2829 68.275 53.975C68.636 49.3629 68.1704 44.7233 66.9 40.275C65.3162 35.8902 62.2935 32.1714 58.325 29.725C57.335 29.1195 56.308 28.5767 55.25 28.1C54.75 27.85 54.15 27.725 53.95 27.35C53.75 26.975 53.95 26.05 53.775 25.55C53.5215 25.0224 53.1658 24.5503 52.7286 24.1612C52.2914 23.772 51.7814 23.4735 51.228 23.2828C50.6746 23.0921 50.0888 23.0131 49.5047 23.0504C48.9206 23.0877 48.3497 23.2405 47.825 23.5C46.7 18.025 36.75 16.825 35.05 22.5C34.146 22.2311 33.175 22.3011 32.319 22.6969C31.463 23.0927 30.7807 23.7871 30.4 24.65C30.1532 25.1213 29.9523 25.6152 29.8 26.125C29.5 26.875 29.8 26.825 29.15 27.175C28.1398 27.6061 27.0943 27.949 26.025 28.2C21.7539 30.0241 17.9757 32.8342 15 36.4C12.0131 39.9089 10.257 44.2991 9.99999 48.9C9.78686 51.4045 9.90454 53.9262 10.35 56.4C10.525 57.4 10.7 58.4 10.9 59.4C11.1 60.4 11.225 60.675 11.35 61.325C11.35 61.475 11.65 62.875 11.65 62.75C11.9583 64.6736 11.8128 66.6426 11.225 68.5ZM39.35 80.775C35.15 82.35 25.1 80.25 27.325 73.975C28.7845 74.6197 30.3924 74.8531 31.975 74.65C31.75 77.5 33.95 78.925 36.425 79.525C36.725 79.5 40.65 80.125 39.35 80.675V80.775ZM36.075 78.275C35.3665 78.1485 34.7041 77.8367 34.1552 77.3713C33.6063 76.9058 33.1905 76.3033 32.95 75.625C32.575 74.275 33.175 73.825 31.525 73.825C30.1912 73.9359 28.8507 73.7125 27.625 73.175C27.95 72.425 28.85 70.475 29.7 70.3C29.7 70.3 31.15 71.125 31.2 71.125C32.0084 71.4835 32.8444 71.7762 33.7 72C36.969 72.8878 40.4099 72.9308 43.7 72.125C44.4372 71.8983 45.1492 71.5967 45.825 71.225C46.2 71 47.4 69.95 47.725 69.975C48.05 70 49.025 71.425 49.25 71.85C49.775 72.85 49.725 72.8 48.9 73.4C48.075 74 46.65 73.85 45.975 74.625C45.3 75.4 45.15 76.825 44.125 77.575C43.1 78.575 41.1 78.15 40.075 79.125C39.65 79.45 36.725 78.5 36.075 78.225V78.275ZM36.6 65.2C36.9248 64.4762 36.9781 63.6597 36.75 62.9C37.475 62.9 40 62.45 40.5 62.9C41 63.35 40.925 65.4 41.3 65.875C42.675 67.775 45.2 68.375 47.05 69.55C46.1694 70.1291 45.2311 70.615 44.25 71C42.2862 71.5677 40.2415 71.8043 38.2 71.7C35.4386 71.7629 32.7135 71.0621 30.325 69.675C32.225 68.175 35.325 67.275 36.6 65.15V65.2ZM28.425 59.525C25.988 57.6343 24.2329 55.0016 23.425 52.025C23.05 50.85 21.95 47.2 22.85 46.375C23.3956 46.1319 23.9654 45.9475 24.55 45.825L27.4 44.825C30.5778 43.6613 33.6834 42.3089 36.7 40.775C40.2678 39.0502 43.4161 36.5674 45.925 33.5C47.251 36.7496 49.4591 39.5639 52.3 41.625C53.4821 42.5361 54.776 43.2922 56.15 43.875C57.475 44.5 57.625 44.25 57.375 45.75C56.8796 48.9497 55.5841 51.9725 53.6087 54.538C51.6333 57.1034 49.0419 59.1283 46.075 60.425C43.1947 61.4663 40.1322 61.9087 37.075 61.725C34.03 61.8714 31.0127 61.0865 28.425 59.475V59.525ZM48.425 79.375C46.6337 80.5049 44.4783 80.9074 42.4 80.5C39 79.975 41.15 79.725 42.9 79.075C44.4292 78.452 45.657 77.26 46.325 75.75C46.8 74.925 46.7 74.925 47.65 74.65C48.3903 74.4089 49.0962 74.0727 49.75 73.65V74.175C49.9043 75.0732 49.873 75.9936 49.658 76.8793C49.443 77.765 49.0489 78.5974 48.5 79.325L48.425 79.375ZM53.05 30.125C54.0765 30.3614 55.0565 30.7669 55.95 31.325C57.8625 32.6076 59.5516 34.1953 60.95 36.025C62.9898 38.8788 64.3729 42.1486 65 45.6C65.775 51.675 65 57.825 65.625 63.9C65.7432 65.1707 65.986 66.4267 66.35 67.65C66.625 68.575 67.65 69.85 67.75 70.725C67.925 72.05 63.8 74 62.75 74.425C61.0078 75.209 59.1507 75.7071 57.25 75.9C56.125 75.9 55.025 76.025 53.9 76.025C52.9847 75.86 52.0545 75.7929 51.125 75.825C51.2517 74.3889 50.9804 72.9456 50.3409 71.6535C49.7015 70.3614 48.7186 69.2703 47.5 68.5C45.65 67.225 41.375 66.325 41.375 63.725C41.375 63.025 41.15 62.875 41.625 62.575C42.1613 62.4147 42.7157 62.3223 43.275 62.3C44.4108 62.0866 45.5181 61.7426 46.575 61.275C48.3055 60.6128 49.9179 59.6758 51.35 58.5C54.2514 56.0454 56.3862 52.8085 57.5 49.175C58.25 49.475 58.8 49.975 58.575 50.85C58.35 51.725 56.8 51.8 56.9 52.65C57 53.5 58 53.275 58.2 53.775C58.4 54.275 58.2 54.7 57.75 55.1C56.925 55.95 56.15 55.8 57.2 56.825C58.25 57.85 57.725 57.575 56.525 58.4C55.325 59.225 56.525 59.175 56.525 60.05C56.525 60.925 54.775 60.95 55.675 61.625C56.575 62.3 57.325 60.725 57.425 60.275C57.525 59.825 57.25 59.4 57.425 59.225C57.6 59.05 57.825 59.1 58 58.925C58.85 58.1 59.85 56.875 57.825 56.15C59.75 55.825 59.475 53.375 58.175 52.525C58.5355 52.4091 58.859 52.2001 59.1129 51.9191C59.3667 51.6381 59.5417 51.295 59.6204 50.9246C59.699 50.5542 59.6785 50.1695 59.5607 49.8096C59.443 49.4497 59.2323 49.1273 58.95 48.875C60.525 48.875 62.525 48.475 62.625 46.6C62.725 44.725 60.3 43.625 58.575 44.1C58.7792 41.5142 58.1836 38.9282 56.8688 36.6923C55.5541 34.4564 53.5839 32.6786 51.225 31.6L50.775 31.45C51.15 31.1 51.475 30.475 51.875 30.2C52.275 29.925 52.5 29.925 53.125 30.075L53.05 30.125ZM57.625 47.95C57.712 46.9593 57.8963 45.9796 58.175 45.025C58.85 44.35 60.8 45.025 61.225 45.7C62.675 48.05 58.95 47.975 57.7 47.9L57.625 47.95ZM32.625 26C33.55 24.225 35.125 25.35 36.1 26.425C37.625 28.3 37.125 25.775 37.3 24.75C37.3657 23.9876 37.6434 23.2589 38.1018 22.6463C38.5601 22.0336 39.1807 21.5614 39.8934 21.283C40.6061 21.0047 41.3825 20.9314 42.1348 21.0713C42.887 21.2113 43.5851 21.5589 44.15 22.075C44.6662 22.5521 45.0824 23.1272 45.3742 23.7667C45.6661 24.4062 45.8278 25.0973 45.85 25.8C45.85 27.45 45.675 28.3 47.15 27.225C47.6425 26.811 48.1892 26.4661 48.775 26.2C49.0527 26.0542 49.3594 25.9725 49.6728 25.9609C49.9861 25.9492 50.2981 26.0079 50.5859 26.1326C50.8736 26.2572 51.1297 26.4448 51.3355 26.6814C51.5413 26.918 51.6914 27.1977 51.775 27.5C51.7879 28.5634 51.3945 29.5917 50.675 30.375C49.85 31.75 48.475 30.95 47.1 30.8C44.8 30.575 42.45 30.375 40.15 30.35C38.92 30.3536 37.6918 30.4455 36.475 30.625C35.775 30.625 34.65 31.175 33.975 30.85C33.2594 30.2934 32.7418 29.5214 32.4987 28.648C32.2556 27.7746 32.2999 26.8462 32.625 26ZM12.925 46.55C13.6 43.3854 15.052 40.4385 17.15 37.975C18.0482 36.9824 18.9996 36.0394 20 35.15C22.316 33.3212 24.8321 31.7612 27.5 30.5L29.3 29.725C29.95 29.475 31.5 28.8 31.975 29.15C32.45 29.5 32.875 30.8 33.3 31.275C26.825 33.1 20.075 38.775 21.175 46.275C19.65 46.275 17.275 46.1 16.775 48.025C16.275 49.95 18.55 51.325 20.25 51.25C18.7 52.05 17.75 54.5 19.825 55.15C18.15 55.95 16.75 59.25 19.675 59.25C18.65 60.425 19.35 61.5 20.7 61.95C20 62.2 20.575 63.7 20.875 64.025C21.175 64.35 22.95 64.95 22.45 63.875C21.95 62.8 21.25 63.875 21.475 62.6C21.475 62 22.175 61.825 21.85 61.175C21.525 60.525 20.65 60.975 20.4 60.525C19.925 59.575 22.325 59.025 21.475 58.175C20.625 57.325 19.475 58.825 18.975 58.05C18.475 57.275 20.825 56 21.2 55.55C22.65 54 20.475 54.55 19.85 53.9C19.225 53.25 21.325 51.525 21.95 51.025C22.5867 54.5949 24.5743 57.7824 27.5 59.925C28.8339 60.8982 30.321 61.6418 31.9 62.125C33.2963 62.3523 34.6747 62.6781 36.025 63.1C36.025 64.15 36.025 64.725 35.275 65.275C31.95 67.775 25.425 70.275 26.075 75.725C24.416 75.5168 22.7468 75.3999 21.075 75.375C17.9694 75.0766 15.0044 73.9355 12.5 72.075C13.6587 70.6404 14.3869 68.9067 14.6 67.075C14.7885 64.369 14.3788 61.6547 13.4 59.125C12.1089 55.0531 11.9448 50.7076 12.925 46.55ZM21.6 49.75C21.275 50.175 19.1 49.95 18.775 49.75C14.925 48 21.675 45.725 21.4 47.775C21.5585 48.4207 21.6258 49.0855 21.6 49.75Z" fill="#7D9D85"/>
<path d="M29.775 49.55C29.175 49.55 28.55 50.825 29.3 50.75C30.05 50.675 30.575 49.55 29.775 49.55Z" fill="#FFD58A"/>
<path d="M49.3251 49.4749C48.5751 49.0999 48.8001 50.5249 49.6751 50.5499C50.5501 50.5749 49.7751 49.7249 49.3251 49.4749Z" fill="#FFD58A"/>
<path d="M28.975 56.475C30.2591 56.475 31.3 55.434 31.3 54.15C31.3 52.8659 30.2591 51.825 28.975 51.825C27.691 51.825 26.65 52.8659 26.65 54.15C26.65 55.434 27.691 56.475 28.975 56.475Z" fill="#FFBBBC"/>
<path d="M49.975 56.3499C51.2591 56.3499 52.3 55.309 52.3 54.0249C52.3 52.7409 51.2591 51.7 49.975 51.7C48.691 51.7 47.65 52.7409 47.65 54.0249C47.65 55.309 48.691 56.3499 49.975 56.3499Z" fill="#FFBBBC"/>
<path d="M27.525 48.8C27.8978 48.8 28.2 48.4977 28.2 48.125C28.2 47.7522 27.8978 47.45 27.525 47.45C27.1522 47.45 26.85 47.7522 26.85 48.125C26.85 48.4977 27.1522 48.8 27.525 48.8Z" fill="white"/>
<path d="M50.65 48.1C51.0228 48.1 51.325 47.7978 51.325 47.425C51.325 47.0522 51.0228 46.75 50.65 46.75C50.2772 46.75 49.975 47.0522 49.975 47.425C49.975 47.7978 50.2772 48.1 50.65 48.1Z" fill="white"/>
</svg>
