<svg width="37" height="36" viewBox="0 0 37 36" fill="none" xmlns="http://www.w3.org/2000/svg">
<path d="M18.0837 14.4703L8.32155 13.0275C8.24813 13.017 8.17354 13.0359 8.11402 13.0802C8.0545 13.1244 8.01486 13.1904 8.00374 13.2637L7.28374 18.1125C7.09839 19.4316 7.42577 20.7717 8.19851 21.8567C8.97126 22.9418 10.1306 23.6894 11.4378 23.9456L10.5687 30.1612L6.31624 31.1765C6.24165 31.1799 6.17145 31.2128 6.12107 31.2679C6.0707 31.323 6.04429 31.3959 6.04765 31.4704C6.051 31.545 6.08386 31.6152 6.13897 31.6656C6.19409 31.716 6.26696 31.7424 6.34155 31.739L14.6609 32.9062H14.7003C14.7626 32.9067 14.8232 32.8864 14.8728 32.8487C14.9223 32.8109 14.9579 32.7578 14.974 32.6976C14.9901 32.6375 14.9857 32.5737 14.9616 32.5162C14.9376 32.4588 14.8951 32.411 14.8409 32.3803L11.12 30.2709L11.9947 24.0244C12.1578 24.0244 12.3209 24.0497 12.4841 24.0497C13.7242 24.0496 14.923 23.604 15.8621 22.794C16.8011 21.984 17.4179 20.8636 17.6 19.6369L18.32 14.7881C18.3304 14.7144 18.3112 14.6395 18.2666 14.58C18.2224 14.5208 18.1567 14.4814 18.0837 14.4703ZM8.52124 13.6265L17.7237 14.985L17.3497 17.5162L8.14437 16.1381L8.52124 13.6265ZM7.89124 31.379L10.7319 30.7012L13.2631 32.144L7.89124 31.379ZM15.2319 22.5872C14.4929 23.1304 13.6104 23.444 12.6944 23.4887C11.7783 23.5335 10.8694 23.3075 10.081 22.8389C9.29267 22.3703 8.65977 21.6799 8.26133 20.8539C7.86289 20.0278 7.71656 19.1027 7.84062 18.194L8.0628 16.695L17.2653 18.0619L17.0431 19.5525C16.9568 20.1533 16.752 20.7309 16.4406 21.2519C16.1292 21.7728 15.7174 22.2267 15.2291 22.5872H15.2319Z" fill="#252B23"/>
<path d="M11.0919 21.8306C8.70409 20.6381 9.25253 17.9353 9.27784 17.82C9.28579 17.7831 9.28637 17.7449 9.27958 17.7078C9.27278 17.6706 9.25873 17.6352 9.23823 17.6034C9.21773 17.5717 9.19117 17.5443 9.16009 17.5228C9.12901 17.5014 9.094 17.4862 9.05706 17.4783C9.02013 17.4703 8.98199 17.4698 8.94483 17.4766C8.90767 17.4834 8.87221 17.4974 8.84048 17.5179C8.80875 17.5384 8.78136 17.565 8.75989 17.596C8.73842 17.6271 8.72329 17.6621 8.71534 17.6991C8.71534 17.7328 8.04597 20.9447 10.8303 22.3341C10.8695 22.3541 10.9129 22.3647 10.9569 22.365C11.0088 22.3649 11.0597 22.3503 11.1039 22.323C11.1481 22.2957 11.1838 22.2567 11.2072 22.2103C11.2421 22.1446 11.2495 22.0678 11.2279 21.9967C11.2063 21.9255 11.1574 21.8658 11.0919 21.8306Z" fill="#252B23"/>
<path d="M26.1641 22.365C26.2137 22.3655 26.2625 22.3518 26.3047 22.3256C28.9428 20.8012 28.2735 17.73 28.2735 17.6991C28.2653 17.6621 28.25 17.6272 28.2284 17.5961C28.2067 17.5651 28.1792 17.5387 28.1473 17.5183C28.1155 17.4979 28.0799 17.484 28.0427 17.4774C28.0054 17.4708 27.9673 17.4716 27.9303 17.4797C27.8934 17.4878 27.8584 17.5031 27.8274 17.5248C27.7964 17.5464 27.7699 17.574 27.7496 17.6058C27.7292 17.6377 27.7153 17.6732 27.7087 17.7105C27.7021 17.7477 27.7028 17.7859 27.711 17.8228C27.7363 17.9325 28.2735 20.5228 26.0235 21.8391C25.9693 21.8698 25.9268 21.9176 25.9027 21.975C25.8787 22.0324 25.8743 22.0962 25.8904 22.1564C25.9065 22.2166 25.9421 22.2697 25.9916 22.3074C26.0411 22.3452 26.1018 22.3654 26.1641 22.365Z" fill="#252B23"/>
<path d="M15.7578 7.50938C15.6859 7.48961 15.609 7.49925 15.5441 7.53617C15.4792 7.57309 15.4317 7.63427 15.4119 7.70625C15.3921 7.77823 15.4018 7.85512 15.4387 7.91999C15.4756 7.98487 15.5368 8.03242 15.6088 8.05219C15.6313 8.05219 17.8391 8.67938 17.9572 10.9406C17.9572 11.0152 17.9868 11.0868 18.0396 11.1395C18.0923 11.1922 18.1639 11.2219 18.2385 11.2219C18.2754 11.2201 18.3116 11.211 18.3451 11.1952C18.3785 11.1794 18.4085 11.1571 18.4333 11.1297C18.4581 11.1022 18.4773 11.0702 18.4897 11.0353C18.5021 11.0005 18.5075 10.9635 18.5057 10.9266C18.3791 8.24906 15.7832 7.515 15.7578 7.50938Z" fill="#252B23"/>
<path d="M23.8917 9.22498C23.8917 9.15038 23.8621 9.07885 23.8093 9.0261C23.7566 8.97336 23.685 8.94373 23.6104 8.94373C23.5739 8.94373 19.9542 8.98029 19.5323 11.9362C19.5219 12.0101 19.5412 12.085 19.586 12.1446C19.6309 12.2042 19.6975 12.2436 19.7714 12.254H19.8107C19.8786 12.2548 19.9444 12.231 19.9961 12.1871C20.0478 12.1432 20.0818 12.082 20.092 12.015C20.4436 9.53998 23.4839 9.50341 23.6132 9.50341C23.6869 9.50268 23.7573 9.47311 23.8093 9.42105C23.8614 9.36899 23.8909 9.29859 23.8917 9.22498Z" fill="#252B23"/>
<path d="M21.38 11.9475C21.3695 12.0213 21.3889 12.0963 21.4337 12.1559C21.4785 12.2155 21.5452 12.2548 21.619 12.2653H21.6584C21.7266 12.266 21.7928 12.2418 21.8446 12.1973C21.8963 12.1528 21.9301 12.091 21.9397 12.0234C22.0353 11.3428 22.9212 11.3287 22.9578 11.3287C23.0324 11.3287 23.1039 11.2991 23.1567 11.2464C23.2094 11.1936 23.239 11.1221 23.239 11.0475C23.239 10.9729 23.2094 10.9014 23.1567 10.8486C23.1039 10.7959 23.0324 10.7662 22.9578 10.7662C22.4684 10.769 21.5122 11.0137 21.38 11.9475Z" fill="#252B23"/>
<path d="M30.6838 31.1765L26.4313 30.1612L25.5622 23.9456C26.8695 23.6894 28.0288 22.9418 28.8015 21.8567C29.5742 20.7717 29.9016 19.4316 29.7163 18.1125L28.9963 13.2637C28.9852 13.1904 28.9455 13.1244 28.886 13.0802C28.8265 13.0359 28.7519 13.017 28.6785 13.0275L18.9163 14.4703C18.8433 14.4814 18.7776 14.5208 18.7335 14.58C18.6888 14.6395 18.6696 14.7144 18.68 14.7881L19.4 19.634C19.5803 20.8623 20.1962 21.9847 21.1355 22.7964C22.0747 23.6081 23.2746 24.0549 24.516 24.0553C24.6791 24.0553 24.8422 24.0553 25.0053 24.03L25.88 30.2765L22.1563 32.3859C22.1021 32.4166 22.0596 32.4644 22.0356 32.5219C22.0115 32.5793 22.0071 32.6431 22.0232 32.7033C22.0393 32.7634 22.0749 32.8165 22.1244 32.8543C22.174 32.892 22.2346 32.9123 22.2969 32.9119H22.3363L30.6556 31.7306C30.7302 31.734 30.8031 31.7076 30.8582 31.6572C30.9133 31.6068 30.9462 31.5366 30.9496 31.462C30.9529 31.3874 30.9265 31.3146 30.8761 31.2594C30.8258 31.2043 30.7556 31.1715 30.681 31.1681L30.6838 31.1765ZM28.4816 13.6265L28.8556 16.1381L19.6531 17.5078L19.2791 14.9765L28.4816 13.6265ZM21.771 22.5872C21.2826 22.2267 20.8708 21.7728 20.5594 21.2519C20.248 20.7309 20.0432 20.1533 19.9569 19.5525L19.7347 18.0619L28.9372 16.695L29.1594 18.194C29.2829 19.1023 29.1364 20.0268 28.738 20.8523C28.3397 21.6778 27.7072 22.3678 26.9193 22.8362C26.1315 23.3047 25.2232 23.5308 24.3077 23.4866C23.3921 23.4423 22.5099 23.1295 21.771 22.5872ZM23.7397 32.1497L26.271 30.7069L29.1116 31.3847L23.7397 32.1497Z" fill="#252B23"/>
<path d="M19.625 13.5C19.6996 13.5 19.7711 13.4704 19.8239 13.4176C19.8766 13.3649 19.9062 13.2933 19.9062 13.2188C19.9062 13.1442 19.8766 13.0726 19.8239 13.0199C19.7711 12.9671 19.6996 12.9375 19.625 12.9375C19.5504 12.9375 19.4789 12.9671 19.4261 13.0199C19.3734 13.0726 19.3438 13.1442 19.3438 13.2188C19.3438 13.2933 19.3734 13.3649 19.4261 13.4176C19.4789 13.4704 19.5504 13.5 19.625 13.5Z" fill="#252B23"/>
<path d="M14.7734 7.89752C14.848 7.89752 14.9196 7.86789 14.9723 7.81515C15.0251 7.7624 15.0547 7.69086 15.0547 7.61627C15.0547 7.54168 15.0251 7.47014 14.9723 7.4174C14.9196 7.36465 14.848 7.33502 14.7734 7.33502C14.6988 7.33502 14.6273 7.36465 14.5746 7.4174C14.5218 7.47014 14.4922 7.54168 14.4922 7.61627C14.4922 7.69086 14.5218 7.7624 14.5746 7.81515C14.6273 7.86789 14.6988 7.89752 14.7734 7.89752Z" fill="#252B23"/>
<path d="M14.0168 9.03657C14.0899 9.05061 14.1655 9.03511 14.2272 8.99346C14.2889 8.95182 14.3315 8.88742 14.3458 8.81439C14.36 8.7421 14.3453 8.66714 14.3048 8.60561C14.2643 8.54408 14.2013 8.50089 14.1293 8.48532C14.0899 8.48532 13.1843 8.29689 12.574 8.6372C12.5416 8.6551 12.5131 8.6792 12.4901 8.70811C12.4671 8.73703 12.45 8.7702 12.4399 8.80572C12.4297 8.84124 12.4266 8.87842 12.4308 8.91514C12.435 8.95185 12.4463 8.98738 12.4643 9.0197C12.4887 9.06314 12.5242 9.09932 12.5672 9.12452C12.6102 9.14972 12.6591 9.16305 12.709 9.16314C12.7569 9.16303 12.8042 9.15146 12.8468 9.12939C13.219 8.98346 13.6262 8.95116 14.0168 9.03657Z" fill="#252B23"/>
<path d="M22.3952 6.18752C22.3952 6.17346 22.4262 6.10314 22.4318 6.08346L22.4599 5.99064C22.5807 5.5376 22.5233 5.05551 22.2996 4.64346C22.1928 4.44228 22.0454 4.26544 21.8668 4.12409C21.6881 3.98274 21.4822 3.87995 21.2618 3.82221C20.9984 3.75672 20.723 3.75576 20.4591 3.81941C20.1952 3.88306 19.9505 4.00945 19.7459 4.18783C19.6537 3.93306 19.5016 3.70421 19.3024 3.52063C19.1031 3.33705 18.8626 3.20415 18.6012 3.13315C18.376 3.08159 18.143 3.07498 17.9153 3.1137C17.6876 3.15242 17.4698 3.2357 17.2743 3.35876C17.0789 3.48183 16.9096 3.64226 16.7763 3.83086C16.643 4.01947 16.5482 4.23253 16.4974 4.45783C16.4974 4.47471 16.4834 4.52252 16.4777 4.54783C16.4721 4.57315 16.4637 4.63221 16.4609 4.64346C16.2302 6.04971 18.2581 8.2069 18.4887 8.44877C18.5148 8.47619 18.5462 8.49805 18.581 8.51303C18.6158 8.52802 18.6533 8.53581 18.6912 8.53596C18.7191 8.5402 18.7476 8.5402 18.7756 8.53596C19.0962 8.43752 21.9199 7.52346 22.3952 6.18752ZM21.8749 6.00189C21.5712 6.84564 19.6756 7.64158 18.7812 7.94252C18.1399 7.24502 16.8687 5.62502 17.0177 4.73908L17.0459 4.59283C17.108 4.33251 17.254 4.09983 17.4613 3.93061C17.6687 3.76138 17.9259 3.66499 18.1934 3.65627C18.2884 3.65462 18.3832 3.66694 18.4746 3.69283C18.7241 3.76365 18.9427 3.91594 19.0957 4.12543C19.2486 4.33492 19.327 4.58955 19.3184 4.84877C19.3186 4.9108 19.3393 4.97103 19.3772 5.02008C19.4152 5.06913 19.4683 5.10426 19.5283 5.11998C19.5883 5.1357 19.6519 5.13115 19.709 5.10702C19.7662 5.08289 19.8137 5.04055 19.8443 4.98658C19.9619 4.75555 20.1535 4.57052 20.3884 4.46094C20.6234 4.35136 20.8883 4.32354 21.1409 4.3819C21.2865 4.42107 21.4225 4.48971 21.5406 4.58356C21.6586 4.67741 21.7561 4.79448 21.8271 4.92752C21.98 5.21383 22.0192 5.54732 21.9368 5.86127L21.9171 5.92596C21.9171 5.92596 21.8749 5.98502 21.8749 6.00189Z" fill="#252B23"/>
<path d="M13.1562 12.3075L13.1983 12.3722C13.7608 13.1625 15.7493 13.216 15.9743 13.2356C16.0259 13.2358 16.0766 13.2216 16.1208 13.1948C16.1649 13.1681 16.2008 13.1296 16.2246 13.0838C16.3287 12.8869 17.2343 11.115 16.8208 10.246L16.7843 10.17L16.7618 10.125C16.6013 9.83802 16.3338 9.6261 16.0177 9.53549C15.7016 9.44487 15.3625 9.48289 15.0743 9.64127C14.9269 9.72824 14.8003 9.84625 14.7032 9.9871C14.606 10.1279 14.5407 10.2883 14.5118 10.4569C14.35 10.4011 14.1781 10.3807 14.0078 10.3972C13.8374 10.4137 13.6726 10.4667 13.5246 10.5525C13.3826 10.6336 13.2591 10.7436 13.1622 10.8754C13.0654 11.0072 12.9972 11.1578 12.9621 11.3175C12.8891 11.6338 12.9405 11.9661 13.1055 12.2456C13.1211 12.2673 13.138 12.288 13.1562 12.3075ZM13.519 11.4328C13.5453 11.2951 13.6191 11.171 13.7276 11.0821C13.836 10.9931 13.9722 10.9451 14.1124 10.9463C14.2054 10.9472 14.2973 10.9666 14.3827 11.0033C14.4682 11.04 14.5455 11.0932 14.6102 11.16C14.6539 11.2051 14.7114 11.2344 14.7735 11.243C14.8357 11.2517 14.899 11.2393 14.9533 11.2078C15.0076 11.1759 15.0496 11.1266 15.0725 11.068C15.0955 11.0093 15.0981 10.9447 15.0799 10.8844C15.0343 10.7434 15.0373 10.5912 15.0883 10.452C15.1392 10.3129 15.2353 10.1948 15.3612 10.1166C15.5207 10.0336 15.7065 10.0166 15.8785 10.0692C16.0505 10.1218 16.195 10.2398 16.2808 10.3978L16.5227 10.2544L16.2808 10.4006L16.3202 10.4766C16.5283 10.9153 16.1487 11.9869 15.8168 12.6647C15.0658 12.6225 13.9437 12.4341 13.6624 12.0403L13.6118 11.9672C13.512 11.8082 13.4777 11.6166 13.5162 11.4328H13.519Z" fill="#252B23"/>
</svg>
