<svg width="37" height="36" viewBox="0 0 37 36" fill="none" xmlns="http://www.w3.org/2000/svg">
<path d="M18.3302 14.8138L18.3944 14.8899L18.4448 14.9497C18.4214 14.9455 18.3985 14.9383 18.3768 14.9283C18.3399 14.9113 18.3071 14.8865 18.2807 14.8556L18.3302 14.8138Z" fill="black" stroke="#252B23"/>
<mask id="path-2-inside-1_120_665" fill="white">
<path d="M18.41 18.4191L19.3803 18.9197C19.4204 18.9402 19.4647 18.9508 19.5097 18.9506C19.572 18.9497 19.6322 18.9282 19.6808 18.8894C19.7295 18.8506 19.764 18.7967 19.7788 18.7363C19.7936 18.6758 19.7879 18.6121 19.7626 18.5552C19.7373 18.4983 19.6939 18.4514 19.6391 18.4219L18.666 17.9184C18.5999 17.8871 18.5242 17.8827 18.4549 17.9063C18.3857 17.9298 18.3283 17.9794 18.295 18.0445C18.2617 18.1097 18.2551 18.1852 18.2766 18.2551C18.298 18.3251 18.3459 18.3839 18.41 18.4191Z"/>
</mask>
<path d="M18.41 18.4191L19.3803 18.9197C19.4204 18.9402 19.4647 18.9508 19.5097 18.9506C19.572 18.9497 19.6322 18.9282 19.6808 18.8894C19.7295 18.8506 19.764 18.7967 19.7788 18.7363C19.7936 18.6758 19.7879 18.6121 19.7626 18.5552C19.7373 18.4983 19.6939 18.4514 19.6391 18.4219L18.666 17.9184C18.5999 17.8871 18.5242 17.8827 18.4549 17.9063C18.3857 17.9298 18.3283 17.9794 18.295 18.0445C18.2617 18.1097 18.2551 18.1852 18.2766 18.2551C18.298 18.3251 18.3459 18.3839 18.41 18.4191Z" fill="black"/>
<path d="M18.41 18.4191L17.9287 19.2956L17.94 19.3018L17.9515 19.3078L18.41 18.4191ZM19.3803 18.9197L18.9218 19.8084L18.9244 19.8097L19.3803 18.9197ZM19.5097 18.9506L19.5137 19.9507L19.5245 19.9505L19.5097 18.9506ZM19.6391 18.4219L20.1139 17.5418L20.1063 17.5377L20.0986 17.5337L19.6391 18.4219ZM18.666 17.9184L19.1255 17.0303L19.1102 17.0224L19.0946 17.015L18.666 17.9184ZM17.9515 19.3078L18.9218 19.8084L19.8389 18.031L18.8685 17.5304L17.9515 19.3078ZM18.9244 19.8097C19.1067 19.9031 19.3088 19.9515 19.5137 19.9506L19.5057 17.9506C19.6206 17.9502 19.734 17.9773 19.8363 18.0297L18.9244 19.8097ZM19.5245 19.9505C19.8081 19.9463 20.0822 19.8482 20.304 19.6715L19.0577 18.1073C19.1821 18.0081 19.3359 17.9531 19.4949 17.9507L19.5245 19.9505ZM20.304 19.6715C20.5258 19.4947 20.6827 19.2494 20.7501 18.9739L18.8074 18.4986C18.8452 18.344 18.9332 18.2064 19.0577 18.1073L20.304 19.6715ZM20.7501 18.9739C20.8175 18.6985 20.7916 18.4084 20.6765 18.1492L18.8487 18.9612C18.7841 18.8158 18.7696 18.6531 18.8074 18.4986L20.7501 18.9739ZM20.6765 18.1492C20.5613 17.8901 20.3635 17.6764 20.1139 17.5418L19.1643 19.302C19.0243 19.2265 18.9133 19.1066 18.8487 18.9612L20.6765 18.1492ZM20.0986 17.5337L19.1255 17.0303L18.2065 18.8066L19.1796 19.3101L20.0986 17.5337ZM19.0946 17.015C18.7936 16.8721 18.4487 16.8522 18.1331 16.9594L18.7767 18.8531C18.5997 18.9132 18.4062 18.902 18.2373 18.8219L19.0946 17.015ZM18.1331 16.9594C17.8176 17.0667 17.5563 17.2926 17.4046 17.5893L19.1854 18.4997C19.1003 18.6662 18.9537 18.7929 18.7767 18.8531L18.1331 16.9594ZM17.4046 17.5893C17.2529 17.886 17.2228 18.2302 17.3206 18.5487L19.2325 17.9615C19.2874 18.1402 19.2705 18.3333 19.1854 18.4997L17.4046 17.5893ZM17.3206 18.5487C17.4185 18.8673 17.6366 19.1352 17.9287 19.2956L18.8914 17.5425C19.0552 17.6325 19.1776 17.7828 19.2325 17.9615L17.3206 18.5487Z" fill="#252B23" mask="url(#path-2-inside-1_120_665)"/>
<mask id="path-4-inside-2_120_665" fill="white">
<path d="M31.5135 25.2394L25.1235 22.1934V19.9434C25.1244 19.8905 25.1104 19.8385 25.083 19.7932C25.0557 19.7479 25.0161 19.7113 24.9688 19.6875L22.5192 18.36V12.2372C22.5196 12.1741 22.4988 12.1127 22.4601 12.0628L18.7813 7.36312V4.78125H20.047C20.1216 4.78125 20.1931 4.75162 20.2458 4.69887C20.2986 4.64613 20.3282 4.57459 20.3282 4.5C20.3282 4.42541 20.2986 4.35387 20.2458 4.30112C20.1931 4.24838 20.1216 4.21875 20.047 4.21875H18.7813V2.77875C18.7813 2.70416 18.7517 2.63262 18.699 2.57987C18.6462 2.52713 18.5747 2.4975 18.5001 2.4975C18.4255 2.4975 18.354 2.52713 18.3012 2.57987C18.2485 2.63262 18.2188 2.70416 18.2188 2.77875V4.21875H16.9532C16.8786 4.21875 16.8071 4.24838 16.7543 4.30112C16.7016 4.35387 16.672 4.42541 16.672 4.5C16.672 4.57459 16.7016 4.64613 16.7543 4.69887C16.8071 4.75162 16.8786 4.78125 16.9532 4.78125H18.2188V7.36594L14.5345 12.0628C14.4958 12.1127 14.475 12.1741 14.4754 12.2372V18.3431L12.0313 19.6875C11.9874 19.7116 11.9506 19.7469 11.9249 19.7899C11.8992 19.833 11.8855 19.8821 11.8851 19.9322V22.1822L5.48666 25.2394C5.43932 25.2626 5.39946 25.2986 5.37161 25.3433C5.34376 25.3881 5.32905 25.4398 5.32916 25.4925V30.1894V31.4184H4.73291C4.65832 31.4184 4.58678 31.4481 4.53404 31.5008C4.48129 31.5536 4.45166 31.6251 4.45166 31.6997V33.2128C4.45166 33.2874 4.48129 33.3589 4.53404 33.4117C4.58678 33.4644 4.65832 33.4941 4.73291 33.4941H32.2813C32.3559 33.4941 32.4275 33.4644 32.4802 33.4117C32.533 33.3589 32.5626 33.2874 32.5626 33.2128V31.6997C32.5626 31.6251 32.533 31.5536 32.4802 31.5008C32.4275 31.4481 32.3559 31.4184 32.2813 31.4184H31.6879V25.4925C31.6865 25.4379 31.6693 25.385 31.6384 25.34C31.6074 25.2951 31.564 25.2601 31.5135 25.2394ZM31.1113 25.6697V29.9166H30.2873V26.4178C30.2874 26.3651 30.2727 26.3134 30.2448 26.2687C30.217 26.2239 30.1771 26.1879 30.1298 26.1647L26.5551 24.4519C26.5217 24.4346 26.4852 24.4241 26.4477 24.4212C26.4103 24.4183 26.3726 24.4229 26.3369 24.4347C26.3012 24.4466 26.2683 24.4655 26.2401 24.4903C26.2118 24.5151 26.1888 24.5454 26.1725 24.5792C26.1561 24.613 26.1467 24.6498 26.1448 24.6874C26.1429 24.7249 26.1486 24.7625 26.1614 24.7978C26.1743 24.8331 26.1941 24.8655 26.2197 24.893C26.2453 24.9206 26.2761 24.9427 26.3104 24.9581L29.7248 26.595V29.9166H25.1235V22.8178L31.1113 25.6697ZM15.0379 12.3356L18.5001 7.91437L21.9623 12.3356V18.0562L18.5873 16.2281C18.5445 16.2034 18.496 16.1904 18.4467 16.1904C18.3973 16.1904 18.3488 16.2034 18.306 16.2281L16.056 17.4628V15.3562C16.056 15.2817 16.0264 15.2101 15.9737 15.1574C15.9209 15.1046 15.8494 15.075 15.7748 15.075C15.7002 15.075 15.6287 15.1046 15.5759 15.1574C15.5232 15.2101 15.4935 15.2817 15.4935 15.3562V17.7722L15.0182 18.0337L15.0379 12.3356ZM15.8817 18.2053C15.8975 18.1986 15.9126 18.1901 15.9267 18.18L18.4579 16.7962L24.561 20.1066V29.9166H23.8213V20.7506C23.8215 20.699 23.8073 20.6483 23.7805 20.6041C23.7538 20.56 23.7153 20.5241 23.6695 20.5003L21.0313 19.1419C20.965 19.1076 20.8877 19.101 20.8165 19.1237C20.7453 19.1464 20.686 19.1964 20.6517 19.2628C20.6173 19.3292 20.6108 19.4065 20.6335 19.4777C20.6562 19.5489 20.7062 19.6082 20.7726 19.6425L23.2532 20.9222V29.9222H21.982V25.0734C21.9805 24.2347 21.6467 23.4308 21.0536 22.8377C20.4605 22.2447 19.6566 21.9109 18.8179 21.9094H18.1823C17.3436 21.9109 16.5397 22.2447 15.9466 22.8377C15.3535 23.4308 15.0197 24.2347 15.0182 25.0734V29.9166H12.4392V20.1037L15.8817 18.2053ZM21.4082 29.9166H15.5807V25.0734C15.5815 24.3837 15.8558 23.7224 16.3435 23.2347C16.8313 22.7469 17.4925 22.4726 18.1823 22.4719H18.8179C19.5077 22.4726 20.1689 22.7469 20.6567 23.2347C21.1444 23.7224 21.4187 24.3837 21.4195 25.0734L21.4082 29.9166ZM11.8767 22.8178V29.9166H7.26978V26.595L10.6842 24.9581C10.746 24.923 10.7922 24.8657 10.8135 24.7978C10.8347 24.73 10.8295 24.6566 10.7989 24.5924C10.7682 24.5282 10.7144 24.4781 10.6482 24.452C10.5821 24.4259 10.5085 24.4259 10.4423 24.4519L6.8676 26.1562C6.81974 26.179 6.77929 26.2149 6.75093 26.2597C6.72256 26.3045 6.70744 26.3564 6.70728 26.4094V29.9081H5.89166V25.6697L11.8767 22.8178ZM28.6251 31.4269C28.5505 31.4269 28.479 31.4565 28.4262 31.5092C28.3735 31.562 28.3438 31.6335 28.3438 31.7081C28.3438 31.7827 28.3735 31.8543 28.4262 31.907C28.479 31.9597 28.5505 31.9894 28.6251 31.9894H32.0001V32.94H5.01416V31.9894H26.2907C26.3653 31.9894 26.4368 31.9597 26.4896 31.907C26.5423 31.8543 26.572 31.7827 26.572 31.7081C26.572 31.6335 26.5423 31.562 26.4896 31.5092C26.4368 31.4565 26.3653 31.4269 26.2907 31.4269H5.88885V30.4791H31.1113V31.4269H28.6251Z"/>
</mask>
<path d="M31.5135 25.2394L25.1235 22.1934V19.9434C25.1244 19.8905 25.1104 19.8385 25.083 19.7932C25.0557 19.7479 25.0161 19.7113 24.9688 19.6875L22.5192 18.36V12.2372C22.5196 12.1741 22.4988 12.1127 22.4601 12.0628L18.7813 7.36312V4.78125H20.047C20.1216 4.78125 20.1931 4.75162 20.2458 4.69887C20.2986 4.64613 20.3282 4.57459 20.3282 4.5C20.3282 4.42541 20.2986 4.35387 20.2458 4.30112C20.1931 4.24838 20.1216 4.21875 20.047 4.21875H18.7813V2.77875C18.7813 2.70416 18.7517 2.63262 18.699 2.57987C18.6462 2.52713 18.5747 2.4975 18.5001 2.4975C18.4255 2.4975 18.354 2.52713 18.3012 2.57987C18.2485 2.63262 18.2188 2.70416 18.2188 2.77875V4.21875H16.9532C16.8786 4.21875 16.8071 4.24838 16.7543 4.30112C16.7016 4.35387 16.672 4.42541 16.672 4.5C16.672 4.57459 16.7016 4.64613 16.7543 4.69887C16.8071 4.75162 16.8786 4.78125 16.9532 4.78125H18.2188V7.36594L14.5345 12.0628C14.4958 12.1127 14.475 12.1741 14.4754 12.2372V18.3431L12.0313 19.6875C11.9874 19.7116 11.9506 19.7469 11.9249 19.7899C11.8992 19.833 11.8855 19.8821 11.8851 19.9322V22.1822L5.48666 25.2394C5.43932 25.2626 5.39946 25.2986 5.37161 25.3433C5.34376 25.3881 5.32905 25.4398 5.32916 25.4925V30.1894V31.4184H4.73291C4.65832 31.4184 4.58678 31.4481 4.53404 31.5008C4.48129 31.5536 4.45166 31.6251 4.45166 31.6997V33.2128C4.45166 33.2874 4.48129 33.3589 4.53404 33.4117C4.58678 33.4644 4.65832 33.4941 4.73291 33.4941H32.2813C32.3559 33.4941 32.4275 33.4644 32.4802 33.4117C32.533 33.3589 32.5626 33.2874 32.5626 33.2128V31.6997C32.5626 31.6251 32.533 31.5536 32.4802 31.5008C32.4275 31.4481 32.3559 31.4184 32.2813 31.4184H31.6879V25.4925C31.6865 25.4379 31.6693 25.385 31.6384 25.34C31.6074 25.2951 31.564 25.2601 31.5135 25.2394ZM31.1113 25.6697V29.9166H30.2873V26.4178C30.2874 26.3651 30.2727 26.3134 30.2448 26.2687C30.217 26.2239 30.1771 26.1879 30.1298 26.1647L26.5551 24.4519C26.5217 24.4346 26.4852 24.4241 26.4477 24.4212C26.4103 24.4183 26.3726 24.4229 26.3369 24.4347C26.3012 24.4466 26.2683 24.4655 26.2401 24.4903C26.2118 24.5151 26.1888 24.5454 26.1725 24.5792C26.1561 24.613 26.1467 24.6498 26.1448 24.6874C26.1429 24.7249 26.1486 24.7625 26.1614 24.7978C26.1743 24.8331 26.1941 24.8655 26.2197 24.893C26.2453 24.9206 26.2761 24.9427 26.3104 24.9581L29.7248 26.595V29.9166H25.1235V22.8178L31.1113 25.6697ZM15.0379 12.3356L18.5001 7.91437L21.9623 12.3356V18.0562L18.5873 16.2281C18.5445 16.2034 18.496 16.1904 18.4467 16.1904C18.3973 16.1904 18.3488 16.2034 18.306 16.2281L16.056 17.4628V15.3562C16.056 15.2817 16.0264 15.2101 15.9737 15.1574C15.9209 15.1046 15.8494 15.075 15.7748 15.075C15.7002 15.075 15.6287 15.1046 15.5759 15.1574C15.5232 15.2101 15.4935 15.2817 15.4935 15.3562V17.7722L15.0182 18.0337L15.0379 12.3356ZM15.8817 18.2053C15.8975 18.1986 15.9126 18.1901 15.9267 18.18L18.4579 16.7962L24.561 20.1066V29.9166H23.8213V20.7506C23.8215 20.699 23.8073 20.6483 23.7805 20.6041C23.7538 20.56 23.7153 20.5241 23.6695 20.5003L21.0313 19.1419C20.965 19.1076 20.8877 19.101 20.8165 19.1237C20.7453 19.1464 20.686 19.1964 20.6517 19.2628C20.6173 19.3292 20.6108 19.4065 20.6335 19.4777C20.6562 19.5489 20.7062 19.6082 20.7726 19.6425L23.2532 20.9222V29.9222H21.982V25.0734C21.9805 24.2347 21.6467 23.4308 21.0536 22.8377C20.4605 22.2447 19.6566 21.9109 18.8179 21.9094H18.1823C17.3436 21.9109 16.5397 22.2447 15.9466 22.8377C15.3535 23.4308 15.0197 24.2347 15.0182 25.0734V29.9166H12.4392V20.1037L15.8817 18.2053ZM21.4082 29.9166H15.5807V25.0734C15.5815 24.3837 15.8558 23.7224 16.3435 23.2347C16.8313 22.7469 17.4925 22.4726 18.1823 22.4719H18.8179C19.5077 22.4726 20.1689 22.7469 20.6567 23.2347C21.1444 23.7224 21.4187 24.3837 21.4195 25.0734L21.4082 29.9166ZM11.8767 22.8178V29.9166H7.26978V26.595L10.6842 24.9581C10.746 24.923 10.7922 24.8657 10.8135 24.7978C10.8347 24.73 10.8295 24.6566 10.7989 24.5924C10.7682 24.5282 10.7144 24.4781 10.6482 24.452C10.5821 24.4259 10.5085 24.4259 10.4423 24.4519L6.8676 26.1562C6.81974 26.179 6.77929 26.2149 6.75093 26.2597C6.72256 26.3045 6.70744 26.3564 6.70728 26.4094V29.9081H5.89166V25.6697L11.8767 22.8178ZM28.6251 31.4269C28.5505 31.4269 28.479 31.4565 28.4262 31.5092C28.3735 31.562 28.3438 31.6335 28.3438 31.7081C28.3438 31.7827 28.3735 31.8543 28.4262 31.907C28.479 31.9597 28.5505 31.9894 28.6251 31.9894H32.0001V32.94H5.01416V31.9894H26.2907C26.3653 31.9894 26.4368 31.9597 26.4896 31.907C26.5423 31.8543 26.572 31.7827 26.572 31.7081C26.572 31.6335 26.5423 31.562 26.4896 31.5092C26.4368 31.4565 26.3653 31.4269 26.2907 31.4269H5.88885V30.4791H31.1113V31.4269H28.6251Z" fill="black" stroke="#252B23" stroke-width="2" mask="url(#path-4-inside-2_120_665)"/>
</svg>
