<svg width="36" height="36" viewBox="0 0 36 36" fill="none" xmlns="http://www.w3.org/2000/svg">
<path d="M29.0813 19.0941C29.1213 19.1146 29.1657 19.1252 29.2106 19.125C29.2731 19.1247 29.3337 19.1036 29.3829 19.065C29.432 19.0264 29.467 18.9726 29.4821 18.912C29.4973 18.8514 29.4918 18.7874 29.4666 18.7303C29.4414 18.6731 29.3978 18.6259 29.3428 18.5963C27.7284 17.7579 26.4282 16.4202 25.636 14.7826C24.8438 13.145 24.6021 11.2952 24.9469 9.50907C24.9537 9.47214 24.9532 9.43422 24.9454 9.39748C24.9376 9.36075 24.9226 9.32591 24.9013 9.29496C24.88 9.26401 24.8529 9.23756 24.8213 9.21711C24.7898 9.19667 24.7546 9.18263 24.7177 9.17579C24.6807 9.16896 24.6428 9.16947 24.6061 9.17729C24.5693 9.18511 24.5345 9.20009 24.5036 9.22138C24.4726 9.24266 24.4462 9.26983 24.4257 9.30134C24.4053 9.33285 24.3912 9.36808 24.3844 9.40501C24.0182 11.3105 24.2776 13.2834 25.1241 15.0294C25.9705 16.7755 27.3585 18.2012 29.0813 19.0941Z" fill="white"/>
<path d="M29.7478 17.91H29.8125C29.849 17.9029 29.8837 17.8887 29.9146 17.8682C29.9455 17.8477 29.9721 17.8212 29.9927 17.7903C30.0134 17.7595 30.0277 17.7249 30.0349 17.6884C30.0421 17.652 30.0421 17.6145 30.0347 17.5781L29.7788 16.2816C29.7645 16.2085 29.7218 16.1441 29.6601 16.1025C29.5984 16.0608 29.5228 16.0453 29.4497 16.0594C29.4132 16.0664 29.3785 16.0806 29.3476 16.1012C29.3167 16.1217 29.2901 16.1482 29.2695 16.179C29.2488 16.2099 29.2345 16.2445 29.2273 16.2809C29.2201 16.3174 29.2201 16.3549 29.2275 16.3912L29.4834 17.6878C29.4965 17.749 29.5296 17.804 29.5775 17.8443C29.6254 17.8845 29.6853 17.9076 29.7478 17.91Z" fill="white"/>
<path d="M28.8338 21.3749C28.7666 21.3431 28.6895 21.3391 28.6194 21.3638C28.5493 21.3886 28.4919 21.4401 28.4597 21.5071L27.8972 22.6968C27.8666 22.7611 27.8615 22.8345 27.8829 22.9023C27.9043 22.9702 27.9506 23.0274 28.0125 23.0624C28.0511 23.0811 28.0934 23.0907 28.1363 23.0906C28.189 23.0907 28.2406 23.076 28.2854 23.0481C28.3302 23.0203 28.3662 22.9804 28.3894 22.9331L28.9519 21.7434C28.9831 21.6785 28.9882 21.6042 28.9662 21.5356C28.9443 21.4671 28.8968 21.4096 28.8338 21.3749Z" fill="white"/>
<path d="M29.7928 21.2175C29.7562 21.2115 29.7188 21.2127 29.6827 21.2212C29.6466 21.2297 29.6126 21.2452 29.5825 21.2669C29.5525 21.2886 29.527 21.3161 29.5076 21.3476C29.4881 21.3792 29.4751 21.4143 29.4693 21.4509L28.935 24.7275C28.9228 24.8009 28.9402 24.8762 28.9834 24.9369C29.0266 24.9975 29.0922 25.0385 29.1656 25.0509H29.2106C29.278 25.0518 29.3435 25.0284 29.3951 24.985C29.4467 24.9417 29.4811 24.8812 29.4918 24.8147L30.029 21.5353C30.0395 21.4619 30.0206 21.3873 29.9763 21.3278C29.9321 21.2682 29.8661 21.2286 29.7928 21.2175Z" fill="white"/>
<path d="M6.53908 18.9759C6.56321 19.0213 6.5993 19.0591 6.64343 19.0854C6.68755 19.1117 6.73803 19.1254 6.78939 19.125C6.83437 19.1252 6.87873 19.1146 6.91876 19.0941C8.63996 18.1999 10.0262 16.7736 10.8711 15.0277C11.7159 13.2817 11.9741 11.3096 11.6072 9.40501C11.6004 9.36808 11.5863 9.33285 11.5659 9.30134C11.5454 9.26983 11.519 9.24266 11.488 9.22138C11.4571 9.20009 11.4222 9.18511 11.3855 9.17729C11.3488 9.16947 11.3109 9.16896 11.2739 9.17579C11.237 9.18263 11.2018 9.19667 11.1703 9.21711C11.1387 9.23756 11.1116 9.26401 11.0903 9.29496C11.069 9.32591 11.054 9.36075 11.0462 9.39748C11.0384 9.43422 11.0379 9.47214 11.0447 9.50907C11.3902 11.2943 11.1497 13.1434 10.3591 14.7808C9.56851 16.4183 8.27006 17.7566 6.6572 18.5963C6.5912 18.631 6.54168 18.6904 6.51953 18.7616C6.49738 18.8328 6.50441 18.9099 6.53908 18.9759Z" fill="white"/>
<path d="M6.18754 17.9072H6.24098C6.30677 17.9085 6.37095 17.8867 6.42234 17.8456C6.47373 17.8045 6.50908 17.7467 6.52223 17.6822L6.77816 16.3856C6.78552 16.3492 6.78561 16.3117 6.7784 16.2753C6.7712 16.2389 6.75686 16.2043 6.7362 16.1734C6.71555 16.1426 6.68899 16.1161 6.65805 16.0956C6.62712 16.075 6.59243 16.0608 6.55598 16.0538C6.48289 16.0397 6.40722 16.0552 6.34554 16.0969C6.28386 16.1385 6.24121 16.2029 6.22691 16.2759L5.97098 17.5725C5.96313 17.6087 5.96252 17.6461 5.96917 17.6825C5.97582 17.719 5.9896 17.7537 6.00972 17.7848C6.02984 17.8159 6.05591 17.8428 6.08643 17.8638C6.11694 17.8848 6.1513 17.8995 6.18754 17.9072Z" fill="white"/>
<path d="M7.54023 21.5071C7.50801 21.4401 7.45057 21.3886 7.38047 21.3638C7.31038 21.3391 7.23333 21.3431 7.16616 21.3749C7.13239 21.3906 7.10207 21.4129 7.07696 21.4404C7.05185 21.4679 7.03245 21.5001 7.01989 21.5352C7.00733 21.5702 7.00186 21.6074 7.0038 21.6446C7.00573 21.6818 7.01503 21.7183 7.03116 21.7518L7.59366 22.9415C7.61686 22.9888 7.65289 23.0287 7.69764 23.0566C7.7424 23.0844 7.79408 23.0991 7.84679 23.099C7.89587 23.0979 7.94403 23.0854 7.98741 23.0624C8.0207 23.0462 8.05046 23.0236 8.07499 22.9959C8.09952 22.9682 8.11833 22.9359 8.13035 22.9009C8.14237 22.8659 8.14736 22.8288 8.14503 22.7919C8.14271 22.7549 8.13311 22.7188 8.11679 22.6856L7.54023 21.5071Z" fill="white"/>
<path d="M6.20714 21.2176C6.17053 21.2234 6.13543 21.2364 6.10385 21.2558C6.07228 21.2752 6.04486 21.3007 6.02317 21.3307C6.00147 21.3608 5.98593 21.3948 5.97744 21.4309C5.96896 21.467 5.96768 21.5044 5.9737 21.541L6.51089 24.8204C6.52167 24.8869 6.556 24.9474 6.60762 24.9907C6.65925 25.0341 6.72473 25.0575 6.79214 25.0566H6.83714C6.91057 25.0442 6.97608 25.0032 7.01932 24.9426C7.06255 24.8819 7.07997 24.8066 7.06776 24.7332L6.53339 21.4566C6.52827 21.4192 6.51568 21.3832 6.49637 21.3508C6.47706 21.3184 6.45142 21.2902 6.42097 21.2679C6.39053 21.2456 6.35591 21.2296 6.31917 21.221C6.28244 21.2123 6.24434 21.2112 6.20714 21.2176Z" fill="white"/>
<path d="M1.99976 30.0938C1.99976 30.1683 2.02939 30.2399 2.08213 30.2926C2.13488 30.3454 2.20641 30.375 2.28101 30.375H14.656C14.7306 30.375 14.8021 30.3454 14.8549 30.2926C14.9076 30.2399 14.9373 30.1683 14.9373 30.0938C14.9373 30.0192 14.9076 29.9476 14.8549 29.8949C14.8021 29.8421 14.7306 29.8125 14.656 29.8125H11.9982C11.9448 25.9059 10.3669 22.0584 8.15632 20.3934C10.5676 19.7272 12.7057 18.3137 14.2631 16.3559C15.8206 14.3982 16.7173 11.9972 16.8244 9.49781C17.3869 9.90844 17.8032 10.1784 17.851 10.2066C17.8957 10.2345 17.9474 10.2493 18.0001 10.2493C18.0528 10.2493 18.1044 10.2345 18.1491 10.2066C18.1969 10.1784 18.6273 9.90844 19.1757 9.49781C19.2828 11.9972 20.1795 14.3982 21.737 16.3559C23.2945 18.3137 25.4325 19.7272 27.8438 20.3934C25.9482 21.8194 24.5166 24.8512 24.1116 28.1559H20.0588C19.9842 28.1559 19.9127 28.1856 19.8599 28.2383C19.8072 28.2911 19.7776 28.3626 19.7776 28.4372C19.7776 28.5118 19.8072 28.5833 19.8599 28.6361C19.9127 28.6888 19.9842 28.7184 20.0588 28.7184H24.0554C24.0244 29.0869 24.0076 29.4553 24.0019 29.8237H21.3441C21.2695 29.8237 21.198 29.8534 21.1453 29.9061C21.0925 29.9589 21.0629 30.0304 21.0629 30.105C21.0629 30.1796 21.0925 30.2511 21.1453 30.3039C21.198 30.3566 21.2695 30.3862 21.3441 30.3862H33.7191C33.7937 30.3862 33.8653 30.3566 33.918 30.3039C33.9707 30.2511 34.0004 30.1796 34.0004 30.105C34.0004 30.0304 33.9707 29.9589 33.918 29.9061C33.8653 29.8534 33.7937 29.8237 33.7191 29.8237H31.2526V13.7616C31.2503 11.71 30.4345 9.74298 28.9841 8.29202C27.5337 6.84105 25.567 6.02454 23.5154 6.02156H21.7266C21.7246 5.47719 21.5105 4.95504 21.1298 4.56593C20.7491 4.17683 20.2318 3.9514 19.6876 3.9375C19.3485 3.94167 19.0159 4.03154 18.7209 4.19872C18.4259 4.36591 18.1779 4.605 18.0001 4.89375C17.8222 4.605 17.5743 4.36591 17.2792 4.19872C16.9842 4.03154 16.6517 3.94167 16.3126 3.9375C15.7713 3.95276 15.257 4.17726 14.8778 4.5638C14.4986 4.95035 14.284 5.46884 14.2791 6.01031H12.4848C10.4312 6.01329 8.46282 6.83135 7.01206 8.28475C5.5613 9.73815 4.74682 11.708 4.74757 13.7616V29.8125H2.28101C2.20641 29.8125 2.13488 29.8421 2.08213 29.8949C2.02939 29.9476 1.99976 30.0192 1.99976 30.0938ZM24.5644 29.8125C24.6179 25.875 26.2519 22.0331 28.4823 20.6184C28.508 20.6006 28.5308 20.5788 28.5498 20.5538C29.2541 20.7012 29.9706 20.7831 30.6901 20.7984V29.8125H24.5644ZM30.6901 13.7503V20.25C27.7666 20.1769 24.9864 18.9683 22.9388 16.8803C20.8913 14.7923 19.7372 11.9891 19.7213 9.06469C20.5651 8.37 21.4566 7.45312 21.6676 6.58687H23.5098C25.4129 6.58762 27.2379 7.34358 28.5842 8.68877C29.9304 10.034 30.6878 11.8584 30.6901 13.7616V13.7503ZM16.3126 4.5C16.6449 4.5126 16.9636 4.63557 17.2182 4.84949C17.4729 5.0634 17.649 5.35607 17.7188 5.68125C17.7341 5.74206 17.7692 5.79604 17.8186 5.83461C17.868 5.87318 17.9289 5.89413 17.9916 5.89413C18.0543 5.89413 18.1152 5.87318 18.1646 5.83461C18.2141 5.79604 18.2492 5.74206 18.2644 5.68125C18.3349 5.35334 18.5136 5.05863 18.7716 4.84441C19.0297 4.63019 19.3523 4.5089 19.6876 4.5C20.0927 4.51539 20.4752 4.69064 20.7514 4.9874C21.0276 5.28417 21.175 5.67826 21.1613 6.08344C21.1613 6.08344 21.1613 6.14813 21.1613 6.16781C21.1613 6.1875 21.1613 6.25781 21.1613 6.2775C21.0516 7.43625 18.9676 9 18.0001 9.63562C17.0326 9 14.9485 7.43625 14.8444 6.28594C14.8444 6.26906 14.8444 6.19031 14.8444 6.17344V6.0975C14.8277 5.69107 14.9728 5.2946 15.2481 4.9951C15.5233 4.69559 15.9062 4.51753 16.3126 4.5ZM12.4848 6.58406H14.3269C14.5407 7.45312 15.4519 8.36719 16.2732 9.06188C16.2581 11.9858 15.1051 14.789 13.0587 16.8774C11.0122 18.9658 8.23308 20.1755 5.31007 20.25V13.7616C5.31156 11.8589 6.06785 10.0346 7.41296 8.68894C8.75807 7.3433 10.5821 6.5863 12.4848 6.58406ZM5.31007 20.8125C6.02953 20.7972 6.74603 20.7153 7.45038 20.5678C7.4693 20.5928 7.49209 20.6147 7.51788 20.6325C9.75101 22.0444 11.3823 25.875 11.4357 29.8125H5.31007V20.8125Z" fill="white"/>
<path d="M8.1394 31.5C8.06481 31.5 7.99327 31.5296 7.94053 31.5824C7.88779 31.6351 7.85815 31.7067 7.85815 31.7812C7.85815 31.8558 7.88779 31.9274 7.94053 31.9801C7.99327 32.0329 8.06481 32.0625 8.1394 32.0625H13.8572C13.9318 32.0625 14.0033 32.0329 14.0561 31.9801C14.1088 31.9274 14.1385 31.8558 14.1385 31.7812C14.1385 31.7067 14.1088 31.6351 14.0561 31.5824C14.0033 31.5296 13.9318 31.5 13.8572 31.5H8.1394Z" fill="white"/>
</svg>
