<svg width="36" height="36" viewBox="0 0 36 36" fill="none" xmlns="http://www.w3.org/2000/svg">
<path d="M29.0053 13.3988C29.0708 13.401 29.1355 13.3836 29.1911 13.3489C29.2467 13.3141 29.2906 13.2635 29.3172 13.2036C29.3439 13.1437 29.352 13.0772 29.3406 13.0127C29.3292 12.9481 29.2988 12.8885 29.2533 12.8413C29.2077 12.7942 29.1491 12.7617 29.085 12.748C29.0209 12.7344 28.9542 12.7402 28.8934 12.7648C28.8326 12.7893 28.7805 12.8315 28.7438 12.8858C28.7072 12.9401 28.6875 13.0042 28.6875 13.0697C28.6875 13.1551 28.7206 13.2371 28.7799 13.2985C28.8392 13.3599 28.92 13.3959 29.0053 13.3988Z" fill="#252B23"/>
<path d="M20.6803 18.5372C20.6969 18.5023 20.7061 18.4643 20.7074 18.4256C20.7086 18.3869 20.7019 18.3484 20.6876 18.3125C20.6733 18.2765 20.6517 18.2439 20.6242 18.2167C20.5967 18.1895 20.5639 18.1682 20.5278 18.1542C20.4917 18.1403 20.4532 18.1339 20.4145 18.1355C20.3758 18.1371 20.3379 18.1467 20.3031 18.1636C20.2684 18.1806 20.2374 18.2045 20.2123 18.234C20.1872 18.2634 20.1684 18.2977 20.1572 18.3347C19.8028 19.246 18.2391 19.5244 16.7428 18.9422C16.035 18.6853 15.4141 18.234 14.9513 17.64C14.7868 17.4496 14.6706 17.2225 14.6124 16.9777C14.5541 16.733 14.5556 16.4778 14.6166 16.2338C15.1586 16.4265 15.7288 16.5282 16.3041 16.5347C17.5725 16.5347 18.6413 16.006 19.0041 15.0666C19.0247 14.9987 19.0189 14.9255 18.9878 14.8616C18.9568 14.7978 18.9027 14.7481 18.8365 14.7225C18.7703 14.6969 18.6969 14.6972 18.6309 14.7235C18.565 14.7497 18.5114 14.8 18.4809 14.8641C18.0563 15.9553 16.3294 16.3069 14.6334 15.646C13.8479 15.3579 13.1637 14.8466 12.6647 14.175C12.2541 13.5844 12.1359 12.9797 12.3328 12.4706C12.3448 12.4054 12.3334 12.3381 12.3005 12.2804C12.2676 12.2228 12.2155 12.1787 12.1532 12.1558C12.091 12.1329 12.0227 12.1328 11.9603 12.1554C11.898 12.178 11.8456 12.2219 11.8125 12.2794C11.5313 12.9685 11.6831 13.7588 12.2063 14.5069C12.6915 15.1711 13.3421 15.6966 14.0934 16.0313C13.8825 16.6303 14.0231 17.3138 14.4956 17.9635C15.0219 18.6444 15.7297 19.163 16.5375 19.4597C17.106 19.6866 17.7114 19.8068 18.3234 19.8141C19.4456 19.8197 20.3597 19.3613 20.6803 18.5372Z" fill="#252B23"/>
<path d="M25.5543 25.74C25.5785 25.7441 25.6032 25.7441 25.6274 25.74C28.6677 24.9328 29.0024 21.0122 29.0024 20.8463C29.0071 20.8084 29.004 20.77 28.9934 20.7334C28.9828 20.6968 28.9648 20.6627 28.9406 20.6333C28.9164 20.6038 28.8865 20.5796 28.8526 20.562C28.8188 20.5445 28.7817 20.534 28.7437 20.5313C28.6695 20.5258 28.5962 20.55 28.5398 20.5985C28.4834 20.647 28.4485 20.7159 28.4427 20.79C28.4427 20.8266 28.1362 24.4772 25.4812 25.1831C25.4066 25.1928 25.3389 25.2318 25.293 25.2914C25.2471 25.351 25.2268 25.4264 25.2365 25.501C25.2462 25.5755 25.2851 25.6432 25.3447 25.6891C25.4043 25.735 25.4797 25.7553 25.5543 25.7456V25.74Z" fill="#252B23"/>
<path d="M22.4212 26.1872H22.4521C22.9053 26.141 23.3614 26.1306 23.8162 26.1563C23.8907 26.1623 23.9647 26.1383 24.0216 26.0898C24.0786 26.0413 24.1139 25.9721 24.1199 25.8975C24.1259 25.8229 24.102 25.749 24.0534 25.6921C24.0049 25.6351 23.9357 25.5998 23.8612 25.5938C23.372 25.5606 22.8809 25.5681 22.393 25.6163C22.3184 25.62 22.2484 25.6532 22.1983 25.7086C22.1482 25.764 22.1221 25.837 22.1258 25.9116C22.1296 25.9862 22.1628 26.0563 22.2182 26.1064C22.2735 26.1565 22.3466 26.1825 22.4212 26.1788V26.1872Z" fill="#252B23"/>
<path d="M8.1309 23.1806C6.04121 22.4438 5.28746 20.9081 5.28183 20.8913C5.25718 20.8388 5.21693 20.7953 5.16659 20.7666C5.11624 20.7379 5.05827 20.7254 5.00058 20.7309C4.944 20.7354 4.89008 20.7568 4.8459 20.7925C4.80173 20.8281 4.76937 20.8763 4.75308 20.9306C3.93746 23.625 5.90621 25.0819 6.77808 25.5684C6.36031 25.9764 6.06651 26.4942 5.93064 27.0621C5.79477 27.6299 5.82238 28.2247 6.01027 28.7775C6.19534 29.3068 6.51751 29.7776 6.94392 30.1417C7.37032 30.5059 7.8857 30.7504 8.43746 30.8503C8.93187 30.888 9.42197 30.7351 9.80715 30.4228C9.79289 30.7982 9.8908 31.1693 10.0884 31.4888C10.71 32.5238 12.2006 32.7206 12.2625 32.7291H12.299C12.3513 32.7287 12.4023 32.7137 12.4466 32.6859C12.4908 32.6581 12.5264 32.6185 12.5493 32.5716C15.03 27.5625 17.7328 27.6975 20.8631 27.8606C22.5506 27.9478 24.4715 28.0463 26.505 27.315C27.2844 27.055 28.0006 26.6343 28.6071 26.0801C29.2137 25.5258 29.6972 24.8504 30.0262 24.0975C30.7856 22.3313 30.7293 20.1009 29.8715 18.1322C29.7282 17.846 29.6444 17.5337 29.6251 17.2142C29.6057 16.8947 29.6513 16.5746 29.759 16.2731C30.1415 15.3028 31.2075 14.7206 31.8093 14.4619C31.8963 14.4228 31.9701 14.3593 32.0219 14.2793C32.0737 14.1992 32.1012 14.1058 32.1012 14.0105C32.1012 13.9151 32.0737 13.8218 32.0219 13.7417C31.9701 13.6616 31.8963 13.5982 31.8093 13.5591L31.6687 13.4944C31.169 13.2667 30.7552 12.8854 30.4875 12.4059C30.2501 11.9936 29.9083 11.651 29.4966 11.4126C29.0849 11.1741 28.6176 11.0482 28.1418 11.0475C26.474 11.0475 25.5937 12.5269 25.1325 13.9472C24.3984 12.0938 22.7193 10.53 21.6281 10.0688C16.124 7.81876 14.8612 5.18345 14.5968 3.81939C14.5745 3.68903 14.5142 3.56816 14.4235 3.47192C14.3328 3.37567 14.2157 3.30832 14.0869 3.27829C13.9581 3.24827 13.8233 3.25691 13.6994 3.30313C13.5755 3.34935 13.4679 3.4311 13.3903 3.53814C13.0909 3.94613 12.8175 4.37261 12.5718 4.81501C12.5354 4.87993 12.5262 4.95665 12.5462 5.02835C12.5663 5.10005 12.6139 5.16088 12.6787 5.19751C12.7111 5.21588 12.7469 5.22762 12.7839 5.23205C12.8209 5.23647 12.8585 5.23349 12.8943 5.22329C12.9302 5.21308 12.9636 5.19585 12.9928 5.17259C13.0219 5.14934 13.0461 5.12052 13.064 5.08782C13.2982 4.6655 13.5594 4.25872 13.8459 3.87001C13.8577 3.85189 13.875 3.83802 13.8952 3.83043C13.9155 3.82283 13.9376 3.82192 13.9584 3.82782C13.9865 3.82927 14.013 3.84146 14.0323 3.86187C14.0517 3.88229 14.0625 3.90937 14.0625 3.93751C14.3437 5.41689 15.6796 8.24626 21.4256 10.6031C22.5759 11.0897 24.4518 12.9234 24.8878 14.985C24.8343 15.2353 24.7921 15.4716 24.7612 15.6797C23.2428 13.3719 21.0497 11.5884 18.4809 10.5722C12.7968 8.43751 11.25 5.41689 10.845 3.80251C10.8125 3.67292 10.7413 3.55633 10.6408 3.46836C10.5402 3.38039 10.4152 3.32525 10.2825 3.31032C10.1488 3.29154 10.0125 3.31277 9.8909 3.37134C9.76927 3.4299 9.66771 3.52317 9.59902 3.63939C6.28308 9.28126 8.85933 13.5 9.28121 14.1244C9.32902 20.1038 14.3128 21.7181 16.4587 22.14C13.1259 23.6025 10.3246 23.9513 8.1309 23.1806ZM17.7187 21.9375C17.7064 21.8767 17.6744 21.8217 17.6276 21.781C17.5808 21.7403 17.5219 21.7162 17.46 21.7125C16.1253 21.5872 14.8275 21.2052 13.6378 20.5875C11.1262 19.2319 9.84371 17.0297 9.84371 14.0344C9.84352 13.9722 9.82275 13.9119 9.78465 13.8628C9.65808 13.6941 6.6909 9.68063 10.0884 3.92345C10.1001 3.90321 10.1176 3.88699 10.1387 3.87695C10.1598 3.8669 10.1835 3.8635 10.2065 3.8672C10.2267 3.8696 10.2456 3.87818 10.2608 3.89178C10.2759 3.90538 10.2864 3.92332 10.2909 3.94314C10.7381 5.66157 12.3581 8.87907 18.2812 11.0981C20.9797 12.1773 23.2351 14.1354 24.6825 16.6556C24.7102 16.7106 24.7552 16.755 24.8106 16.7819C24.866 16.8088 24.9286 16.8168 24.989 16.8047C25.0498 16.7924 25.1048 16.7604 25.1455 16.7136C25.1862 16.6668 25.2103 16.6079 25.214 16.5459C25.214 16.4981 25.5403 11.61 28.1531 11.61C28.5302 11.6109 28.9004 11.7109 29.2267 11.8999C29.553 12.089 29.8238 12.3605 30.0121 12.6872C30.3373 13.2687 30.8399 13.7309 31.4465 14.0063C30.749 14.3269 29.6634 14.9822 29.2359 16.065C29.0995 16.4352 29.0397 16.8292 29.06 17.2232C29.0803 17.6172 29.1803 18.003 29.354 18.3572C30.1528 20.1853 30.1978 22.2497 29.5087 23.8753C29.2099 24.557 28.771 25.1682 28.2205 25.6692C27.6701 26.1702 27.0204 26.5499 26.3137 26.7834C24.3871 27.4781 22.6125 27.3853 20.8912 27.2981C17.7412 27.135 14.7628 26.9803 12.1134 32.1356C11.7393 32.0541 10.9125 31.8122 10.5412 31.1991C10.3021 30.8025 10.2965 30.2934 10.5243 29.6916C10.5487 29.6273 10.5487 29.5564 10.5244 29.4921C10.5 29.4279 10.453 29.3748 10.3921 29.3428C10.3513 29.3219 10.3059 29.3113 10.26 29.3119C10.2153 29.3121 10.1714 29.3229 10.1318 29.3435C10.0922 29.364 10.058 29.3937 10.0321 29.43C9.7509 29.8294 9.00277 30.3806 8.51902 30.2963C8.07027 30.2097 7.65216 30.0066 7.30662 29.7075C6.96109 29.4083 6.70025 29.0236 6.55027 28.5919C5.95965 26.9044 7.42777 25.7372 7.44465 25.7259C7.48446 25.696 7.5156 25.656 7.53488 25.61C7.55415 25.564 7.56086 25.5138 7.55433 25.4644C7.54791 25.4148 7.52837 25.3677 7.49771 25.3282C7.46706 25.2886 7.42641 25.258 7.37996 25.2394C7.27027 25.1944 4.84871 24.1791 5.16371 21.7322C5.87702 22.6441 6.84071 23.3283 7.93683 23.7009C10.4681 24.6009 13.7109 24.1116 17.5809 22.2497C17.6349 22.22 17.6777 22.1733 17.7026 22.1169C17.7275 22.0605 17.7331 21.9975 17.7187 21.9375Z" fill="#252B23"/>
<path d="M14.8865 25.3293C13.3902 26.069 9.77053 25.7456 9.73397 25.7428C9.66022 25.7365 9.58697 25.7596 9.53011 25.8069C9.47324 25.8543 9.43735 25.9222 9.43022 25.9959C9.42317 26.0701 9.44587 26.1441 9.49333 26.2016C9.54079 26.259 9.60914 26.2953 9.68334 26.3024C10.9001 26.4064 12.1238 26.4008 13.3396 26.2856C12.718 26.6761 12.1326 27.1213 11.5902 27.6159C11.5639 27.642 11.5429 27.6731 11.5287 27.7074C11.5144 27.7417 11.507 27.7784 11.507 27.8156C11.507 27.8527 11.5144 27.8895 11.5287 27.9237C11.5429 27.958 11.5639 27.9891 11.5902 28.0153C11.6428 28.0645 11.7123 28.0917 11.7843 28.0912C11.8226 28.0914 11.8606 28.0838 11.8959 28.0688C11.9313 28.0538 11.9631 28.0318 11.9896 28.004C12.4902 27.4753 14.3521 26.2603 15.1283 25.8271C15.1925 25.7915 15.2402 25.7321 15.2612 25.6617C15.2822 25.5913 15.2749 25.5155 15.2407 25.4505C15.2065 25.3855 15.1483 25.3364 15.0784 25.3137C15.0085 25.2911 14.9326 25.2967 14.8668 25.3293H14.8865Z" fill="#252B23"/>
<path d="M6.24928 10.5384C6.1903 10.4931 6.11575 10.4729 6.04195 10.4824C5.96815 10.4919 5.90112 10.5302 5.85553 10.589C5.6156 10.8951 5.44173 11.2475 5.34491 11.6241C5.24809 12.0008 5.23043 12.3934 5.29303 12.7772C5.35867 13.1653 5.50151 13.5362 5.71311 13.8681C5.92471 14.2 6.20076 14.4861 6.52491 14.7094C6.57239 14.7437 6.62942 14.7624 6.68803 14.7628C6.74807 14.7633 6.80667 14.7445 6.85528 14.7093C6.90388 14.674 6.93994 14.6241 6.95817 14.5669C6.97639 14.5097 6.97584 14.4482 6.95659 14.3914C6.93733 14.3345 6.90039 14.2853 6.85116 14.2509C6.58775 14.0709 6.36332 13.8397 6.19129 13.571C6.01926 13.3023 5.90315 13.0017 5.84991 12.6872C5.80035 12.3788 5.81551 12.0636 5.89444 11.7614C5.97337 11.4593 6.11433 11.1769 6.30835 10.9322C6.33036 10.9024 6.34629 10.8687 6.35524 10.8328C6.36419 10.7969 6.36597 10.7596 6.36048 10.723C6.355 10.6865 6.34235 10.6513 6.32327 10.6197C6.30419 10.588 6.27905 10.5604 6.24928 10.5384Z" fill="#252B23"/>
<path d="M5.82758 16.1888H5.8979C5.97249 16.1985 6.04788 16.1781 6.10748 16.1322C6.16708 16.0863 6.20601 16.0187 6.21571 15.9441C6.22541 15.8695 6.20507 15.7941 6.15919 15.7345C6.1133 15.6749 6.04561 15.636 5.97102 15.6263C5.46258 15.5004 5.02052 15.1869 4.73352 14.7488C4.60077 14.5427 4.51267 14.3111 4.47488 14.0689C4.4371 13.8267 4.45047 13.5792 4.51415 13.3425C4.52391 13.3067 4.52649 13.2693 4.52172 13.2324C4.51696 13.1956 4.50494 13.1601 4.48638 13.1279C4.46781 13.0958 4.44306 13.0676 4.41356 13.0451C4.38405 13.0225 4.35037 13.006 4.31446 12.9966C4.27863 12.9873 4.24132 12.9851 4.20467 12.9903C4.16801 12.9954 4.13273 13.0078 4.10086 13.0266C4.06898 13.0454 4.04113 13.0703 4.0189 13.0999C3.99668 13.1295 3.98051 13.1632 3.97133 13.1991C3.88817 13.5089 3.87022 13.8326 3.91864 14.1497C3.96705 14.4668 4.08076 14.7704 4.25258 15.0413C4.61169 15.6109 5.17525 16.0215 5.82758 16.1888Z" fill="#252B23"/>
</svg>
