<svg width="10" height="8" viewBox="0 0 10 8" fill="none" xmlns="http://www.w3.org/2000/svg">
<path d="M9.68032 6.53709C9.69692 6.50214 9.70614 6.46414 9.70739 6.42547C9.70864 6.3868 9.7019 6.34828 9.68758 6.31234C9.67327 6.27639 9.65169 6.24378 9.6242 6.21656C9.59671 6.18933 9.5639 6.16807 9.52782 6.1541C9.49173 6.14013 9.45316 6.13376 9.4145 6.13538C9.37584 6.137 9.33793 6.14658 9.30315 6.16352C9.26836 6.18046 9.23745 6.2044 9.21233 6.23383C9.18722 6.26327 9.16845 6.29757 9.15719 6.33459C8.80282 7.24584 7.23907 7.52427 5.74282 6.94209C5.03503 6.6852 4.41406 6.23385 3.95126 5.6399C3.78684 5.44949 3.67061 5.22234 3.61237 4.9776C3.55412 4.73286 3.55556 4.47771 3.61657 4.23365C4.15862 4.42636 4.72882 4.52805 5.30407 4.53459C6.57251 4.53459 7.64126 4.00584 8.00407 3.06646C8.02471 2.99855 8.01892 2.92534 7.98784 2.86152C7.95676 2.79771 7.9027 2.748 7.83651 2.72238C7.77031 2.69675 7.69688 2.69711 7.63093 2.72337C7.56499 2.74963 7.51141 2.79985 7.48094 2.86396C7.05626 3.95521 5.32938 4.30677 3.63344 3.64584C2.84792 3.35776 2.16365 2.84652 1.66469 2.1749C1.25407 1.58427 1.13594 0.979586 1.33282 0.470523C1.34481 0.405296 1.33336 0.337931 1.3005 0.280324C1.26764 0.222718 1.21548 0.178576 1.15323 0.155696C1.09099 0.132816 1.02266 0.132668 0.960311 0.15528C0.897965 0.177892 0.845615 0.221809 0.812507 0.279273C0.531257 0.968336 0.683133 1.75865 1.20626 2.50677C1.69146 3.17093 2.34209 3.69648 3.09344 4.03115C2.88251 4.63021 3.02313 5.31365 3.49563 5.96334C4.02191 6.64428 4.72965 7.1629 5.53751 7.45959C6.10597 7.6865 6.71141 7.80663 7.32345 7.81396C8.44563 7.81958 9.35969 7.36115 9.68032 6.53709Z" fill="#252B23"/>
</svg>
