<svg width="36" height="36" viewBox="0 0 36 36" fill="none" xmlns="http://www.w3.org/2000/svg">
<path d="M12.5916 25.3912C13.0019 25.3914 13.4031 25.27 13.7444 25.0423C14.0857 24.8146 14.3519 24.4908 14.5093 24.1119C14.6667 23.733 14.7083 23.3159 14.6288 22.9134C14.5493 22.5108 14.3522 22.1409 14.0626 21.8503C13.8219 21.6073 13.525 21.4274 13.1982 21.3267C12.8714 21.2259 12.5248 21.2073 12.189 21.2726C11.8533 21.3379 11.5389 21.485 11.2737 21.7009C11.0084 21.9168 10.8006 22.1948 10.6685 22.5103C10.5365 22.8258 10.4843 23.1689 10.5166 23.5094C10.549 23.8499 10.6649 24.1771 10.854 24.4621C11.0431 24.747 11.2996 24.9809 11.6007 25.143C11.9019 25.3051 12.2384 25.3904 12.5804 25.3912H12.5916ZM11.5313 22.2384C11.819 21.9674 12.2012 21.8194 12.5964 21.8261C12.9916 21.8328 13.3686 21.9935 13.647 22.2741C13.9254 22.5547 14.0831 22.9329 14.0867 23.3282C14.0903 23.7234 13.9393 24.1044 13.666 24.39C13.5262 24.53 13.36 24.6408 13.177 24.7161C12.994 24.7914 12.7979 24.8297 12.6001 24.8287C12.3 24.8286 12.0068 24.7394 11.7574 24.5725C11.5081 24.4055 11.3139 24.1684 11.1995 23.891C11.085 23.6136 11.0555 23.3085 11.1145 23.0143C11.1736 22.7202 11.3187 22.4501 11.5313 22.2384Z" fill="#252B23"/>
<path d="M12.5915 30.3216C13.5478 30.3216 14.0653 28.6341 14.0653 27.0759C14.0653 27.0056 14.0653 26.9353 14.0653 26.865L14.2115 27.0169C15.3365 28.1419 16.8721 28.9434 17.5471 28.2684C17.8593 27.9563 17.8762 27.4247 17.5893 26.7497C17.274 26.0694 16.8353 25.4534 16.2956 24.9328L16.1437 24.7838C17.7778 24.8316 19.6003 24.3141 19.6003 23.3128C19.6003 22.3116 17.7806 21.7997 16.1437 21.8419L16.2956 21.6956C16.8353 21.1751 17.274 20.5591 17.5893 19.8788C17.8706 19.2094 17.8706 18.6722 17.5471 18.36C16.8721 17.6822 15.3253 18.5006 14.2115 19.6116L14.0653 19.7634C14.0653 19.6931 14.0653 19.6228 14.0653 19.5525C14.0625 17.9775 13.5478 16.3125 12.5915 16.3125C11.6353 16.3125 11.1178 17.9831 11.1178 19.5581C11.1178 19.6284 11.1178 19.6988 11.1178 19.7691L10.9687 19.6116C9.85776 18.4866 8.31089 17.6822 7.63308 18.36C6.95526 19.0378 7.7737 20.5819 8.88464 21.6956L9.03933 21.8419C7.39964 21.7997 5.58276 22.3144 5.58276 23.3128C5.58276 24.3112 7.39964 24.8316 9.03933 24.7838C8.98589 24.8316 8.93526 24.8822 8.88464 24.9328C8.34679 25.4544 7.90923 26.0702 7.5937 26.7497C7.31245 27.4163 7.31245 27.9563 7.63589 28.2684C8.3137 28.9434 9.86058 28.1278 10.9715 27.0169L11.1206 26.865C11.1206 26.9353 11.1206 27.0056 11.1206 27.0759C11.1178 28.6481 11.6353 30.3216 12.5915 30.3216ZM10.575 26.6175C9.4162 27.7762 8.29683 28.1334 8.0437 27.8691C7.91151 27.7369 7.93964 27.3938 8.11964 26.9691C8.40304 26.3559 8.79678 25.8001 9.2812 25.3294C9.52728 25.082 9.79248 24.8544 10.0743 24.6488C10.1242 24.6113 10.1603 24.5583 10.1768 24.4981C10.1932 24.438 10.1893 24.374 10.1654 24.3164C10.1416 24.2587 10.0992 24.2106 10.0451 24.1796C9.99091 24.1487 9.92798 24.1366 9.8662 24.1453C9.521 24.1989 9.17211 24.2253 8.82276 24.2241C7.18589 24.2241 6.14245 23.6841 6.14245 23.3128C6.14245 22.9416 7.18589 22.4016 8.82276 22.4016C9.17217 22.4015 9.52105 22.4288 9.8662 22.4831C9.92874 22.4931 9.9928 22.4816 10.048 22.4506C10.1032 22.4196 10.1464 22.3709 10.1704 22.3123C10.1945 22.2537 10.1981 22.1888 10.1807 22.1279C10.1632 22.067 10.1258 22.0138 10.0743 21.9769C9.79252 21.7722 9.52732 21.5455 9.2812 21.2991C8.12245 20.1403 7.76526 19.0209 8.02964 18.7678C8.29401 18.5147 9.41058 18.8634 10.5609 20.0194C10.8112 20.2651 11.0416 20.5303 11.25 20.8125C11.2873 20.8632 11.3406 20.8999 11.4013 20.9167C11.4619 20.9336 11.5265 20.9295 11.5846 20.9053C11.6427 20.8809 11.6909 20.8377 11.7215 20.7826C11.7521 20.7275 11.7634 20.6638 11.7534 20.6016C11.7013 20.2571 11.6749 19.9093 11.6746 19.5609C11.6746 17.9241 12.2146 16.8778 12.5859 16.8778C12.9571 16.8778 13.5 17.9156 13.5 19.5525C13.5001 19.901 13.4729 20.2489 13.4184 20.5931C13.4076 20.6559 13.4184 20.7205 13.4491 20.7764C13.4798 20.8322 13.5285 20.876 13.5874 20.9005C13.6462 20.925 13.7116 20.9288 13.7729 20.9113C13.8342 20.8938 13.8877 20.856 13.9246 20.8041C14.1302 20.5212 14.3578 20.2551 14.6053 20.0081C15.7612 18.8522 16.8834 18.495 17.1365 18.7566C17.2687 18.8888 17.2406 19.2347 17.0578 19.6566C16.7707 20.2712 16.3731 20.828 15.885 21.2991C15.6376 21.5442 15.3725 21.7707 15.0918 21.9769C15.0406 22.0138 15.0034 22.0669 14.986 22.1276C14.9687 22.1884 14.9723 22.2531 14.9962 22.3116C15.0201 22.3702 15.0631 22.419 15.1183 22.4501C15.1734 22.4813 15.2374 22.4929 15.3 22.4831C15.6451 22.4287 15.994 22.4014 16.3434 22.4016C17.9803 22.4016 19.0237 22.9416 19.0237 23.3128C19.0237 23.6841 18 24.2241 16.3546 24.2241C16.0053 24.2253 15.6564 24.1989 15.3112 24.1453C15.2494 24.1366 15.1865 24.1487 15.1323 24.1796C15.0782 24.2106 15.0358 24.2587 15.012 24.3164C14.9881 24.374 14.9842 24.438 15.0006 24.4981C15.0171 24.5583 15.0532 24.6113 15.1031 24.6488C15.3838 24.8559 15.6489 25.0834 15.8962 25.3294C16.3849 25.7989 16.7825 26.3549 17.069 26.9691C17.2518 27.3938 17.28 27.7369 17.1478 27.8691C16.8834 28.1334 15.764 27.7762 14.6165 26.6175C14.3684 26.3721 14.1407 26.1069 13.9359 25.8244C13.899 25.7729 13.8458 25.7355 13.7849 25.718C13.724 25.7006 13.659 25.7042 13.6005 25.7283C13.5419 25.7523 13.4932 25.7955 13.4622 25.8507C13.4312 25.9059 13.4197 25.97 13.4296 26.0325C13.4802 26.3779 13.5037 26.7268 13.5 27.0759C13.5 28.7128 12.96 29.7591 12.5887 29.7591C12.2175 29.7591 11.6775 28.7128 11.6775 27.0759C11.6779 26.7267 11.7042 26.3779 11.7562 26.0325C11.7661 25.97 11.7547 25.9059 11.7237 25.8507C11.6927 25.7955 11.6439 25.7523 11.5854 25.7283C11.5268 25.7042 11.4618 25.7006 11.401 25.718C11.3401 25.7355 11.2869 25.7729 11.25 25.8244C11.0462 26.1061 10.8205 26.3713 10.575 26.6175Z" fill="#252B23"/>
<path d="M25.3829 18.6947C24.8452 18.7145 24.3362 18.942 23.9628 19.3293C23.5895 19.7167 23.3809 20.2337 23.3809 20.7717C23.3809 21.3097 23.5895 21.8268 23.9628 22.2141C24.3362 22.6015 24.8452 22.829 25.3829 22.8488C25.9205 22.829 26.4295 22.6015 26.8029 22.2141C27.1762 21.8268 27.3848 21.3097 27.3848 20.7717C27.3848 20.2337 27.1762 19.7167 26.8029 19.3293C26.4295 18.942 25.9205 18.7145 25.3829 18.6947ZM26.4375 21.8447C26.2977 21.9848 26.1315 22.0959 25.9486 22.1717C25.7657 22.2475 25.5696 22.2864 25.3716 22.2863C24.9812 22.2694 24.6124 22.1025 24.3421 21.8203C24.0718 21.5381 23.9209 21.1625 23.9209 20.7717C23.9209 20.381 24.0718 20.0053 24.3421 19.7231C24.6124 19.441 24.9812 19.274 25.3716 19.2572C25.5705 19.2574 25.7673 19.2971 25.9507 19.3738C26.1342 19.4506 26.3006 19.5629 26.4404 19.7044C26.5809 19.8449 26.6924 20.0117 26.7685 20.1954C26.8446 20.379 26.8838 20.5758 26.8838 20.7745C26.8838 20.9733 26.8446 21.1701 26.7685 21.3537C26.6924 21.5374 26.5809 21.7042 26.4404 21.8447H26.4375Z" fill="#252B23"/>
<path d="M32.3832 20.7703C32.3832 19.7719 30.5607 19.26 28.9267 19.2994L29.0785 19.1532C30.2035 18.0282 31.0079 16.4925 30.3301 15.8175C30.0179 15.5053 29.4863 15.4913 28.8113 15.7753C28.133 16.0913 27.519 16.5299 27.0001 17.0691L26.851 17.221C26.851 17.1507 26.851 17.0803 26.851 17.01C26.851 15.435 26.3335 13.7644 25.3773 13.7644C24.421 13.7644 23.9063 15.435 23.9063 17.01C23.9063 17.0803 23.9063 17.1507 23.9063 17.221L23.7573 17.0691C23.2359 16.5291 22.6189 16.0904 21.9376 15.7753C21.271 15.4941 20.731 15.4941 20.4188 15.8175C20.1067 16.141 20.0926 16.6613 20.3767 17.3363C20.692 18.0166 21.1307 18.6326 21.6704 19.1532L21.8223 19.2994C20.191 19.2544 18.3657 19.7719 18.3657 20.7703C18.3657 21.7688 20.191 22.2891 21.8223 22.2413L21.6704 22.3903C20.5454 23.5153 19.741 25.0482 20.4188 25.726C21.0967 26.4038 22.6463 25.5938 23.7573 24.4688L23.9063 24.3169C23.9063 24.3872 23.9063 24.4575 23.9063 24.5278C23.9063 26.1 24.421 27.7707 25.3801 27.7707C26.3392 27.7707 26.8538 26.1 26.8538 24.5278C26.8538 24.4575 26.8538 24.3872 26.8538 24.3169L27.0001 24.4688C28.1251 25.5938 29.6579 26.3953 30.3357 25.7203C31.0135 25.0453 30.1951 23.4957 29.0842 22.3847L28.9323 22.2357C30.5579 22.2835 32.3832 21.7716 32.3832 20.7703ZM28.097 21.6141C28.0348 21.6041 27.971 21.6153 27.9159 21.6459C27.8608 21.6765 27.8176 21.7248 27.7932 21.7828C27.769 21.841 27.765 21.9055 27.7818 21.9662C27.7986 22.0269 27.8353 22.0802 27.886 22.1175C28.1702 22.3174 28.4382 22.5394 28.6876 22.7813C29.8435 23.94 30.2007 25.0594 29.9392 25.3125C29.6776 25.5657 28.5554 25.2197 27.4079 24.061C27.1581 23.8198 26.9277 23.5593 26.7188 23.2819C26.6817 23.2301 26.6281 23.1924 26.5668 23.175C26.5055 23.1577 26.4401 23.1616 26.3813 23.1863C26.3233 23.2107 26.2751 23.2539 26.2445 23.309C26.2139 23.3641 26.2026 23.4278 26.2126 23.49C26.2671 23.8352 26.2943 24.1841 26.2942 24.5335C26.2942 26.1703 25.7542 27.2138 25.3829 27.2138C25.0117 27.2138 24.4688 26.1703 24.4688 24.5335C24.4679 24.1841 24.4942 23.8353 24.5476 23.49C24.5576 23.4278 24.5463 23.3641 24.5157 23.309C24.4851 23.2539 24.4369 23.2107 24.3788 23.1863C24.3447 23.1732 24.3085 23.1666 24.272 23.1666C24.2276 23.1665 24.1838 23.1769 24.1442 23.1969C24.1046 23.2169 24.0703 23.2461 24.0442 23.2819C23.8385 23.5638 23.6109 23.8289 23.3635 24.075C22.202 25.2338 21.0938 25.5938 20.8126 25.3266C20.5313 25.0594 20.9082 23.9457 22.067 22.7953C22.3138 22.544 22.5809 22.3136 22.8657 22.1063C22.9164 22.0689 22.9531 22.0157 22.97 21.955C22.9868 21.8943 22.9828 21.8297 22.9585 21.7716C22.9341 21.7135 22.8909 21.6653 22.8358 21.6347C22.7808 21.6041 22.717 21.5929 22.6548 21.6028C22.3105 21.6564 21.9626 21.6827 21.6142 21.6816C19.9773 21.6816 18.931 21.1416 18.931 20.7703C18.931 20.3991 19.9773 19.8591 21.6142 19.8591C21.9626 19.8588 22.3106 19.8861 22.6548 19.9407C22.7173 19.9504 22.7813 19.9388 22.8365 19.9077C22.8916 19.8765 22.9346 19.8277 22.9585 19.7691C22.9828 19.711 22.9868 19.6464 22.97 19.5857C22.9531 19.525 22.9164 19.4717 22.8657 19.4344C22.5832 19.2296 22.318 19.0019 22.0726 18.7538C21.5831 18.2842 21.1846 17.7284 20.897 17.1141C20.717 16.6922 20.686 16.3463 20.821 16.2141C20.956 16.0819 21.2963 16.11 21.721 16.2928C22.3352 16.5793 22.8912 16.977 23.3607 17.4657C23.6075 17.7133 23.835 17.9794 24.0413 18.2616C24.0787 18.3123 24.132 18.349 24.1927 18.3658C24.2533 18.3827 24.3179 18.3786 24.376 18.3544C24.4341 18.33 24.4823 18.2868 24.5129 18.2317C24.5435 18.1766 24.5547 18.1129 24.5448 18.0507C24.4913 17.7064 24.4649 17.3584 24.466 17.01C24.466 15.3732 25.006 14.3269 25.3773 14.3269C25.7485 14.3269 26.2885 15.3732 26.2885 17.01C26.2887 17.3585 26.2614 17.7065 26.207 18.0507C26.1961 18.1135 26.207 18.1781 26.2377 18.2339C26.2684 18.2898 26.3171 18.3335 26.376 18.3581C26.4348 18.3826 26.5002 18.3864 26.5615 18.3688C26.6227 18.3513 26.6763 18.3135 26.7132 18.2616C26.9186 17.9794 27.1452 17.7134 27.391 17.4657C27.8617 16.9782 28.4173 16.5807 29.0307 16.2928C29.4554 16.1128 29.8013 16.0819 29.9335 16.2141C30.1951 16.4785 29.8379 17.5978 28.682 18.7453C28.435 18.9929 28.1689 19.2204 27.886 19.426C27.8341 19.4629 27.7963 19.5164 27.7788 19.5777C27.7613 19.639 27.7651 19.7044 27.7896 19.7632C27.8141 19.8221 27.8579 19.8708 27.9137 19.9015C27.9695 19.9322 28.0342 19.943 28.097 19.9322C28.4412 19.8777 28.7891 19.8505 29.1376 19.8507C30.7745 19.8507 31.8207 20.3907 31.8207 20.7619C31.8207 21.1332 30.7745 21.6732 29.1376 21.6732C28.7894 21.677 28.4415 21.6535 28.097 21.6028V21.6141Z" fill="#252B23"/>
<path d="M18.0001 11.7141C18.5377 11.6943 19.0468 11.4668 19.4201 11.0794C19.7935 10.6921 20.0021 10.175 20.0021 9.63703C20.0021 9.09903 19.7935 8.58199 19.4201 8.19463C19.0468 7.80728 18.5377 7.57979 18.0001 7.56C17.7209 7.54972 17.4425 7.59584 17.1815 7.69559C16.9206 7.79535 16.6824 7.94669 16.4813 8.14057C16.2801 8.33446 16.1201 8.5669 16.0108 8.82402C15.9015 9.08114 15.8452 9.35765 15.8452 9.63703C15.8452 9.91641 15.9015 10.1929 16.0108 10.45C16.1201 10.7072 16.2801 10.9396 16.4813 11.1335C16.6824 11.3274 16.9206 11.4787 17.1815 11.5785C17.4425 11.6782 17.7209 11.7243 18.0001 11.7141ZM16.9313 8.56125C17.0718 8.42131 17.2385 8.31051 17.4219 8.23522C17.6053 8.15992 17.8018 8.12161 18.0001 8.1225C18.199 8.12225 18.396 8.16167 18.5795 8.23846C18.763 8.31524 18.9294 8.42785 19.0688 8.56969C19.28 8.78129 19.4237 9.05069 19.4819 9.3439C19.5401 9.6371 19.5101 9.94097 19.3958 10.2172C19.2815 10.4934 19.0879 10.7295 18.8395 10.8958C18.5911 11.0621 18.299 11.1511 18.0001 11.1516C17.7005 11.1503 17.408 11.0603 17.1596 10.893C16.9111 10.7256 16.7178 10.4884 16.604 10.2112C16.4903 9.93408 16.4612 9.62944 16.5205 9.33578C16.5797 9.04212 16.7247 8.7726 16.937 8.56125H16.9313Z" fill="#252B23"/>
<path d="M10.9856 9.63841C10.9856 10.6368 12.8081 11.1543 14.4422 11.1065L14.2903 11.2556C13.7514 11.7769 13.3129 12.3927 12.9965 13.0725C12.7153 13.739 12.7153 14.279 13.0387 14.5912C13.7165 15.269 15.2634 14.4506 16.3743 13.3397L16.5234 13.1878C16.5234 13.2581 16.5234 13.3284 16.5234 13.3987C16.5234 14.9709 17.0381 16.6443 17.9972 16.6443C18.9562 16.6443 19.4709 14.9568 19.4709 13.3987C19.4709 13.3284 19.4709 13.2581 19.4709 13.1878L19.6172 13.3397C20.7422 14.4647 22.275 15.269 22.9528 14.5912C23.265 14.279 23.279 13.7475 22.995 13.0725C22.6785 12.3897 22.2379 11.7717 21.6956 11.25L21.5437 11.1009C23.1778 11.1487 25.0003 10.6312 25.0003 9.63278C25.0003 8.63435 23.1806 8.12247 21.5437 8.15622L21.6956 8.00716C22.8206 6.88216 23.625 5.34935 22.9472 4.67153C22.2693 3.99372 20.7225 4.81216 19.6115 5.9231L19.4653 6.07497C19.4653 6.00466 19.4653 5.93435 19.4653 5.86403C19.4653 4.29185 18.9478 2.61841 17.9915 2.61841C17.0353 2.61841 16.5178 4.30591 16.5178 5.86403C16.5178 5.93435 16.5178 6.00466 16.5178 6.07497L16.3687 5.9231C15.2578 4.7981 13.7109 3.99372 13.0331 4.67153C12.7209 4.98372 12.7068 5.51528 12.9909 6.19028C13.3073 6.87001 13.7458 7.48585 14.2847 8.00716L14.4365 8.15622C12.8081 8.12247 10.9856 8.63716 10.9856 9.63841ZM15.2747 8.79466C15.3369 8.80462 15.4006 8.7934 15.4557 8.7628C15.5108 8.7322 15.554 8.684 15.5784 8.62591C15.6031 8.56714 15.607 8.50174 15.5897 8.44042C15.5723 8.37911 15.5346 8.32551 15.4828 8.28841C15.201 8.0837 14.9358 7.85706 14.6897 7.6106C14.2008 7.14055 13.8023 6.58478 13.514 5.97091C13.334 5.54622 13.3031 5.2031 13.4381 5.0681C13.6997 4.80653 14.819 5.16372 15.9693 6.32247C16.2175 6.56783 16.4451 6.83309 16.65 7.1156C16.6873 7.1663 16.7406 7.20301 16.8013 7.21984C16.862 7.23666 16.9265 7.23264 16.9847 7.20841C17.0427 7.184 17.091 7.14079 17.1216 7.08571C17.1522 7.03063 17.1634 6.96687 17.1534 6.90466C17.0999 6.56039 17.0736 6.21244 17.0747 5.86403C17.0747 4.22716 17.6147 3.18091 17.9859 3.18091C18.3572 3.18091 18.8972 4.22716 18.8972 5.86403C18.8973 6.21251 18.8701 6.56046 18.8156 6.90466C18.8048 6.96746 18.8156 7.03208 18.8463 7.08793C18.877 7.14378 18.9258 7.18754 18.9846 7.21205C19.0434 7.23657 19.1088 7.24037 19.1701 7.22285C19.2314 7.20532 19.2849 7.16751 19.3218 7.1156C19.5267 6.83309 19.7543 6.56783 20.0025 6.32247C21.1584 5.16372 22.2806 4.80653 22.5337 5.0681C22.7868 5.32966 22.4381 6.45185 21.2822 7.59935C21.0352 7.84597 20.769 8.07262 20.4862 8.27716C20.4349 8.31465 20.3978 8.36842 20.3809 8.42971C20.3641 8.491 20.3685 8.55619 20.3934 8.61466C20.4178 8.67275 20.461 8.72095 20.5161 8.75155C20.5712 8.78215 20.6349 8.79337 20.6972 8.78341C21.0414 8.72999 21.3894 8.70366 21.7378 8.70466C23.3747 8.70466 24.4209 9.24185 24.4209 9.61591C24.4209 9.98997 23.3747 10.5243 21.7378 10.5243C21.3894 10.5254 21.0414 10.4991 20.6972 10.4456C20.6305 10.4301 20.5605 10.4395 20.5003 10.4719C20.44 10.5043 20.3937 10.5576 20.3699 10.6217C20.3461 10.6859 20.3465 10.7565 20.371 10.8204C20.3955 10.8842 20.4425 10.937 20.5031 10.9687C20.7853 11.1741 21.0513 11.4007 21.299 11.6465C21.7865 12.1172 22.184 12.6728 22.4718 13.2862C22.6518 13.7109 22.6828 14.054 22.5506 14.189C22.289 14.4506 21.1668 14.0934 20.0193 12.9375C19.771 12.6913 19.5434 12.425 19.3387 12.1415C19.3018 12.0896 19.2482 12.0518 19.187 12.0343C19.1257 12.0168 19.0603 12.0206 19.0015 12.0451C18.9426 12.0696 18.8939 12.1134 18.8632 12.1692C18.8325 12.225 18.8216 12.2897 18.8325 12.3525C18.8869 12.6967 18.9142 13.0446 18.914 13.3931C18.914 15.03 18.374 16.0762 18.0028 16.0762C17.6315 16.0762 17.0915 15.03 17.0915 13.3931C17.0904 13.0447 17.1168 12.6967 17.1703 12.3525C17.1802 12.2903 17.169 12.2265 17.1384 12.1714C17.1078 12.1163 17.0596 12.0731 17.0015 12.0487C16.968 12.0335 16.9315 12.0259 16.8947 12.0262C16.8503 12.0261 16.8065 12.0365 16.7669 12.0565C16.7273 12.0766 16.693 12.1057 16.6668 12.1415C16.4586 12.4247 16.2282 12.6908 15.9778 12.9375C14.819 14.0934 13.6997 14.4506 13.4465 14.189C13.3115 14.054 13.3425 13.7109 13.5225 13.2862C13.8115 12.6728 14.2098 12.1171 14.6981 11.6465C14.9415 11.4004 15.2039 11.1738 15.4828 10.9687C15.5346 10.9316 15.5723 10.878 15.5897 10.8167C15.607 10.7554 15.6031 10.69 15.5784 10.6312C15.5539 10.5726 15.5102 10.524 15.4546 10.4934C15.3989 10.4627 15.3345 10.4518 15.2718 10.4625C14.9276 10.5161 14.5796 10.5424 14.2312 10.5412C12.5943 10.5412 11.5481 10.004 11.5481 9.63278C11.5481 9.26153 12.5943 8.71872 14.2312 8.71872C14.5808 8.72052 14.9297 8.74967 15.2747 8.80591V8.79466Z" fill="#252B23"/>
<path d="M32.9063 8.30527C33.5214 7.32167 33.7235 6.13515 33.4688 5.0034C33.4606 4.96693 33.4451 4.93248 33.4234 4.90206C33.4017 4.87163 33.3741 4.84585 33.3423 4.82621C33.3108 4.80627 33.2758 4.79277 33.2391 4.7865C33.2024 4.78022 33.1648 4.78129 33.1285 4.78965C31.9993 5.06314 31.0232 5.77045 30.4117 6.7584C29.8201 7.70712 29.611 8.84511 29.8267 9.94214L28.7551 11.6634C29.0853 10.7212 29.0868 9.69492 28.7595 8.7517C28.4321 7.80848 27.7952 7.00383 26.9523 6.46871C26.9213 6.44768 26.8862 6.43354 26.8494 6.42723C26.8125 6.42092 26.7747 6.4226 26.7385 6.43215C26.7021 6.44041 26.6676 6.45585 26.6372 6.47758C26.6068 6.49931 26.581 6.52689 26.5613 6.55871C25.9581 7.54976 25.7674 8.73784 26.0304 9.86787C26.2933 10.9979 26.9888 11.9798 27.9676 12.6028L28.0042 12.6196H28.0323C28.0602 12.6239 28.0887 12.6239 28.1167 12.6196C27.7088 12.9315 27.3585 13.3123 27.0817 13.7446C27.0692 13.7644 27.0606 13.7864 27.0563 13.8093C27.0552 13.8224 27.0552 13.8356 27.0563 13.8487C27.0549 13.8665 27.0549 13.8844 27.0563 13.9021C27.0563 13.9218 27.0563 13.9387 27.0563 13.9556C27.0646 13.9888 27.0789 14.0203 27.0985 14.0484L27.1126 14.0653C27.1302 14.0853 27.15 14.1032 27.1717 14.1187C28.1623 14.7218 29.3499 14.9124 30.4795 14.6494C31.6091 14.3865 32.5905 13.6911 33.2129 12.7125C33.2332 12.6807 33.2469 12.6451 33.2532 12.6079C33.2595 12.5707 33.2582 12.5326 33.2495 12.4959C33.2412 12.4594 33.2258 12.425 33.204 12.3946C33.1823 12.3641 33.1547 12.3383 33.1229 12.3187C32.1329 11.7142 30.9449 11.5233 29.8154 11.7871C29.5958 11.8404 29.3805 11.9099 29.1713 11.9953L30.2963 10.1953C31.3734 9.91656 32.3055 9.24157 32.9063 8.30527ZM30.8926 7.05089C31.3727 6.27797 32.111 5.70006 32.9767 5.41965C33.0928 6.23919 32.9429 7.07437 32.549 7.80238C32.1551 8.53039 31.5381 9.11282 30.7885 9.46402L31.4129 8.45996C31.4366 8.39784 31.4376 8.32931 31.4156 8.26654C31.3936 8.20378 31.3501 8.15083 31.2928 8.11711C31.2355 8.08339 31.168 8.07108 31.1025 8.08236C31.037 8.09363 30.9775 8.12777 30.9348 8.17871L30.3104 9.17996C30.292 8.42899 30.4934 7.689 30.8898 7.05089H30.8926ZM26.5782 9.73402C26.371 8.84832 26.4836 7.91787 26.896 7.10715C27.5561 7.60132 28.0404 8.29408 28.2778 9.08375C28.5152 9.87342 28.4932 10.7184 28.2151 11.4946L27.872 9.93652C27.8658 9.89875 27.8521 9.86263 27.8315 9.83037C27.8109 9.7981 27.784 9.77038 27.7523 9.74888C27.7207 9.72739 27.685 9.71258 27.6474 9.70537C27.6098 9.69815 27.5711 9.69868 27.5338 9.70692C27.4964 9.71516 27.4611 9.73094 27.4301 9.75329C27.399 9.77564 27.3728 9.80409 27.3532 9.83691C27.3335 9.86972 27.3207 9.9062 27.3156 9.94413C27.3105 9.98205 27.3132 10.0206 27.3235 10.0575L27.6751 11.6521C27.129 11.1344 26.7475 10.4673 26.5782 9.73402ZM29.9532 12.3778C30.8389 12.1705 31.7694 12.2831 32.5801 12.6956C32.0803 13.3622 31.3784 13.8494 30.5791 14.0845C29.7798 14.3197 28.926 14.2903 28.1448 14.0006L29.9813 13.5309C30.0196 13.5242 30.056 13.5096 30.0883 13.4881C30.1206 13.4666 30.1481 13.4387 30.1691 13.406C30.1901 13.3734 30.2041 13.3368 30.2103 13.2984C30.2164 13.2601 30.2146 13.2209 30.2049 13.1834C30.1951 13.1458 30.1777 13.1106 30.1537 13.0801C30.1298 13.0496 30.0997 13.0244 30.0655 13.006C30.0313 12.9877 29.9937 12.9766 29.955 12.9735C29.9163 12.9705 29.8774 12.9754 29.8407 12.9881L28.0688 13.4381C28.583 12.9116 29.2367 12.5428 29.9532 12.375V12.3778Z" fill="#252B23"/>
<path d="M25.7399 32.7037C25.7772 32.701 25.8135 32.6909 25.8469 32.674C25.8802 32.6571 25.9098 32.6337 25.934 32.6053C25.9579 32.5761 25.9757 32.5423 25.9864 32.5061C25.997 32.4699 26.0002 32.4319 25.9959 32.3943C25.8812 31.2399 25.3151 30.1775 24.4209 29.4384C23.5297 28.6954 22.3821 28.3327 21.2259 28.4287H21.2062C21.1143 28.0541 20.9744 27.693 20.7899 27.3543C20.7772 27.3347 20.7621 27.3168 20.7449 27.3009C20.7373 27.2908 20.7288 27.2814 20.7196 27.2728C20.7046 27.2627 20.6886 27.2542 20.6718 27.2475C20.6558 27.2373 20.6389 27.2289 20.6212 27.2222C20.6016 27.2193 20.5817 27.2193 20.5621 27.2222C20.5463 27.2192 20.5301 27.2192 20.5143 27.2222C20.4797 27.2255 20.4462 27.2361 20.4159 27.2531C19.4081 27.8285 18.6666 28.7767 18.351 29.8934C18.0353 31.0102 18.1709 32.2062 18.7284 33.224C18.7462 33.2565 18.7703 33.2852 18.7992 33.3084C18.8282 33.3315 18.8615 33.3488 18.8971 33.359C18.9223 33.3617 18.9478 33.3617 18.973 33.359C19.0226 33.3585 19.0711 33.3449 19.1137 33.3197C20.1212 32.7438 20.861 31.7938 21.1724 30.6759C21.232 30.4582 21.2752 30.2363 21.3018 30.0122C21.6423 30.8115 22.21 31.4932 22.9345 31.9727C23.659 32.4522 24.5083 32.7083 25.3771 32.7093C25.4952 32.7206 25.6162 32.715 25.7399 32.7037ZM20.6296 30.5353C20.3851 31.4115 19.8381 32.1728 19.0855 32.684C18.7445 31.927 18.6569 31.0802 18.8358 30.2694C19.0146 29.4586 19.4504 28.7272 20.0784 28.184L19.603 30.015C19.5937 30.0508 19.5916 30.0881 19.5968 30.1248C19.6019 30.1614 19.6142 30.1967 19.6331 30.2286C19.6519 30.2604 19.6768 30.2883 19.7064 30.3105C19.736 30.3327 19.7697 30.3489 19.8055 30.3581C19.8289 30.3608 19.8525 30.3608 19.8759 30.3581C19.9397 30.3601 20.0024 30.3403 20.0535 30.302C20.1046 30.2636 20.1412 30.209 20.1571 30.1472L20.6155 28.3781C20.8249 29.0812 20.8298 29.8295 20.6296 30.5353ZM21.6927 29.4581L22.9077 30.4903C22.9358 30.5143 22.9683 30.5325 23.0034 30.544C23.0386 30.5554 23.0756 30.5598 23.1124 30.5569C23.1492 30.5541 23.1851 30.544 23.2181 30.5272C23.251 30.5105 23.2803 30.4874 23.3043 30.4593C23.3281 30.4311 23.3462 30.3984 23.3574 30.3632C23.3686 30.328 23.3728 30.2909 23.3696 30.2541C23.3665 30.2172 23.3561 30.1814 23.3391 30.1486C23.3221 30.1157 23.2988 30.0866 23.2705 30.0628L22.033 29.0081C22.7785 29.0928 23.4831 29.3928 24.0609 29.8715C24.762 30.4506 25.2345 31.26 25.394 32.1553C24.5698 32.1603 23.7657 31.9011 23.0996 31.4157C22.4334 30.9303 21.9404 30.2442 21.6927 29.4581Z" fill="#252B23"/>
<path d="M5.6981 14.3916C4.54189 14.3202 3.40411 14.7072 2.53122 15.4688C2.50314 15.4932 2.48018 15.523 2.46369 15.5563C2.44719 15.5897 2.43749 15.626 2.43513 15.6632C2.43278 15.7003 2.43782 15.7376 2.44997 15.7728C2.46212 15.8079 2.48113 15.8404 2.50591 15.8682C3.28059 16.7324 4.36512 17.256 5.52372 17.325C5.61935 17.325 5.71216 17.325 5.80497 17.325C6.86514 17.325 7.88971 16.9425 8.6906 16.2478C8.71577 16.2255 8.73672 16.1988 8.75247 16.1691C8.75976 16.1499 8.7654 16.1302 8.76935 16.11C8.95478 16.5952 9.22315 17.0443 9.56247 17.4375C9.57851 17.4537 9.59645 17.4679 9.61591 17.4797C9.62601 17.4888 9.63738 17.4964 9.64966 17.5022C9.66557 17.5099 9.68271 17.5146 9.70028 17.5163C9.71798 17.5192 9.73602 17.5192 9.75372 17.5163H9.77341C9.80814 17.5166 9.84257 17.5099 9.87466 17.4966L9.91403 17.4741L9.95903 17.446C10.8181 16.6685 11.3386 15.5856 11.409 14.4291C11.4794 13.2726 11.0942 12.1345 10.3359 11.2585C10.3114 11.23 10.2815 11.2067 10.2479 11.1899C10.2143 11.1732 10.1776 11.1633 10.1402 11.161C10.1027 11.1586 10.0651 11.1638 10.0296 11.1762C9.99418 11.1886 9.96156 11.2079 9.93372 11.2332C9.07042 12.0086 8.54707 13.0927 8.47685 14.251C8.46462 14.476 8.46932 14.7016 8.49091 14.926L7.08466 13.3341C7.11575 12.1956 6.70601 11.0891 5.94092 10.2454C5.17584 9.40168 4.11452 8.88602 2.97841 8.80597C2.94097 8.80274 2.90326 8.80706 2.86751 8.81865C2.83177 8.83024 2.79871 8.84888 2.77028 8.87347C2.74251 8.89847 2.72 8.92876 2.70406 8.96256C2.68812 8.99637 2.67909 9.03301 2.67747 9.07034C2.61796 10.2095 3.00078 11.3277 3.746 12.1913C4.49122 13.055 5.54124 13.5974 6.67685 13.7053L8.01841 15.2241C7.3408 14.7298 6.53536 14.4409 5.6981 14.3916ZM5.55185 16.7597C4.64327 16.705 3.78342 16.3303 3.12466 15.7022C3.7884 15.2121 4.59176 14.9476 5.41685 14.9476C6.24193 14.9476 7.04529 15.2121 7.70903 15.7022L6.11716 15.5841C6.08022 15.5813 6.04311 15.5859 6.00792 15.5974C5.97274 15.609 5.94018 15.6274 5.91211 15.6516C5.88403 15.6757 5.86099 15.7052 5.8443 15.7382C5.8276 15.7713 5.81758 15.8073 5.81481 15.8442C5.81204 15.8812 5.81658 15.9183 5.82815 15.9535C5.83973 15.9887 5.85812 16.0212 5.88227 16.0493C5.90643 16.0774 5.93588 16.1004 5.96895 16.1171C6.00201 16.1338 6.03804 16.1438 6.07497 16.1466L7.70341 16.2675C7.04902 16.6365 6.30156 16.8075 5.55185 16.7597ZM9.0506 14.2847C9.10462 13.376 9.47936 12.5159 10.1081 11.8575C10.6044 12.5267 10.8705 13.3386 10.8664 14.1717C10.8624 15.0048 10.5884 15.8142 10.0856 16.4785L10.1643 14.5885C10.1677 14.5139 10.1413 14.441 10.0909 14.3859C10.0405 14.3308 9.97034 14.2979 9.89575 14.2946C9.82116 14.2912 9.74829 14.3176 9.69317 14.368C9.63805 14.4184 9.6052 14.4886 9.60185 14.5632L9.52591 16.3913C9.17079 15.7484 9.00594 15.0178 9.0506 14.2847ZM4.21872 11.8603C3.6152 11.1792 3.27243 10.3064 3.25122 9.39659C4.07044 9.51957 4.82835 9.90291 5.41285 10.4899C5.99735 11.077 6.37742 11.8365 6.49685 12.6563L5.71497 11.7703C5.6657 11.7145 5.59627 11.6804 5.52192 11.6757C5.44758 11.6709 5.37438 11.6959 5.31841 11.745C5.29032 11.7695 5.26737 11.7992 5.25088 11.8326C5.23438 11.866 5.22468 11.9023 5.22232 11.9394C5.21997 11.9766 5.22501 12.0138 5.23716 12.049C5.24931 12.0842 5.26832 12.1166 5.2931 12.1444L6.07497 13.0219C5.35717 12.8218 4.71254 12.4184 4.21872 11.8603Z" fill="#252B23"/>
</svg>
