<svg width="80" height="86" viewBox="0 0 80 86" fill="none" xmlns="http://www.w3.org/2000/svg">
<circle cx="40" cy="40" r="40" fill="#DDECE1"/>
<path d="M22.7501 31.125L22.3501 34.375L24.0001 36.225L35.4751 36L50.9251 36.225C51.0751 36.225 59.7001 34.55 59.7001 34.55L58.4751 29.85L50.1251 31.7L53.7001 13.8L41.6501 14.8L27.5001 14.6L30.7001 32.1L22.7501 31.125Z" fill="#E1D8C7"/>
<path d="M36.2499 65.25L29.8749 67.575L24.6249 71.325L22.2749 76.05L23.2749 80.125L26.8249 82.025L34.9249 81.85L39.1749 81.025L44.9249 81.2L52.0499 79.05L55.0749 75L54.1249 70.7L49.6249 68L43.0749 65.1L36.2499 65.25Z" fill="white"/>
<path d="M61.9501 46.0751L58.4751 45.65L54.6501 41.175L45.4001 38.55L40.5501 36.1L33.7001 35.8L30.0251 36.5L26.7251 39.775L22.9751 44.25L22.1001 47.425H19.7001L18.3751 48.225L17.7251 50L18.0251 51.6L19.8001 52.45H22.8501L26.3251 60L32.8751 62.775L37.0001 62.9501V64.175L36.4251 65.1L37.3001 66.175L39.6251 67.8L41.1501 67.1L43.2751 65.775L43.0251 62.8L43.1001 62.775L50.5751 60.5L54.7751 57.625L58.3501 51.2L61.5001 50.525L63.3751 48.1L61.9501 46.0751Z" fill="#FEE9BE"/>
<path d="M35.4501 77.95L35.1001 81.5999L38.5501 80.65L42.1251 80.7999L41.4751 77.325L38.6751 78.6249L38.4751 79.0499L36.5751 78.0749L35.4501 77.95Z" fill="#FEE9BE"/>
<path d="M27.725 47.3499C26.475 49.0249 28.825 50.6499 30.225 49.2999C31.625 47.9499 29.025 45.5749 27.725 47.3499ZM28.225 48.0999C28.1355 48.0999 28.0497 48.0644 27.9864 48.0011C27.9231 47.9378 27.8875 47.852 27.8875 47.7624C27.8875 47.6729 27.9231 47.5871 27.9864 47.5238C28.0497 47.4605 28.1355 47.4249 28.225 47.4249C28.3145 47.4249 28.4004 47.4605 28.4637 47.5238C28.527 47.5871 28.5625 47.6729 28.5625 47.7624C28.5625 47.852 28.527 47.9378 28.4637 48.0011C28.4004 48.0644 28.3145 48.0999 28.225 48.0999Z" fill="#4D4D4D"/>
<path d="M50.875 45.775C49.375 44.7 47.325 46.7251 48.775 48.1251C50.225 49.5251 52.925 47.175 50.875 45.775ZM49.2 46.775C49.1071 46.775 49.0181 46.7382 48.9525 46.6725C48.8868 46.6069 48.85 46.5179 48.85 46.425C48.85 46.3322 48.8868 46.2432 48.9525 46.1776C49.0181 46.1119 49.1071 46.0751 49.2 46.0751C49.2928 46.0751 49.3818 46.1119 49.4475 46.1776C49.5131 46.2432 49.55 46.3322 49.55 46.425C49.55 46.5179 49.5131 46.6069 49.4475 46.6725C49.3818 46.7382 49.2928 46.775 49.2 46.775Z" fill="#4D4D4D"/>
<path d="M42.7501 56.325C42.2751 56.175 41.9751 57.325 41.7751 57.575C41.4997 57.9068 41.1432 58.1617 40.7402 58.3151C40.3372 58.4684 39.9014 58.5148 39.4751 58.45C39.1197 58.4299 38.7739 58.3267 38.4656 58.1487C38.1573 57.9707 37.8951 57.7228 37.7001 57.425C37.5251 57.175 36.9501 55.65 36.7001 56.825C36.3501 58.425 39.3501 59.5 40.4501 59.325C40.8814 59.3017 41.3005 59.1734 41.6708 58.9512C42.0412 58.7289 42.3516 58.4196 42.5751 58.05C42.7751 57.825 43.4001 56.5 42.7501 56.325Z" fill="#6A6256"/>
<path d="M46.05 42.575C45.9 43.6 49.925 43.375 50.725 43.575C51.525 43.775 52.175 44.1 52.9 44.225C53.625 44.35 54.925 44.225 53.85 43.35C52.775 42.475 46.3 40.525 46.05 42.575Z" fill="#5E8166"/>
<path d="M33.0001 42.4001C31.3618 41.9654 29.6384 41.9654 28.0001 42.4001C27.4251 42.5501 25.1001 43.0751 25.2501 44.0251C25.4001 44.9751 27.9001 44.0251 28.0251 44.0251C29.3001 43.8501 30.5251 44.0251 31.8001 43.8251C32.3251 43.8001 34.3751 43.1501 33.0001 42.4001Z" fill="#5E8166"/>
<path d="M30.7 49.45C30.175 49.45 29.625 50.575 30.3 50.525C30.975 50.475 31.425 49.45 30.7 49.45Z" fill="#FFD58A"/>
<path d="M48.475 48.725C47.825 48.375 48.025 49.65 48.8 49.675C49.575 49.7 48.9 48.925 48.475 48.725Z" fill="#FFD58A"/>
<path d="M39.125 69.325C39.125 69.325 39.075 69.425 39.125 69.325V69.325Z" fill="#361041"/>
<path d="M21.8501 53.225C21.6729 54.9828 22.0229 56.7535 22.8554 58.3118C23.6879 59.87 24.9654 61.1452 26.5251 61.975C27.7185 62.5422 28.9666 62.9862 30.2501 63.3C32.1751 63.8 34.3251 63.525 36.2001 64.1C35.9242 64.3394 35.612 64.5335 35.2751 64.675H35.1001C32.9501 65.675 30.2251 66.125 28.0251 67.35C25.7328 68.5432 23.8193 70.3528 22.5001 72.575C21.8914 73.5115 21.5199 74.5822 21.418 75.6945C21.316 76.8068 21.4866 77.9272 21.915 78.9587C22.3434 79.9902 23.0166 80.9019 23.8765 81.6148C24.7364 82.3276 25.757 82.8202 26.8501 83.05C29.3497 83.3855 31.8889 83.2755 34.3501 82.725C35.6001 82.525 36.8501 82.075 38.1501 81.95C39.4501 81.825 40.3251 82.1 41.4251 82.075C46.4251 82.075 51.9501 81.225 55.1001 77.075C55.8988 75.9194 56.2318 74.5049 56.0325 73.1143C55.8332 71.7238 55.1162 70.4597 54.0251 69.575C51.7482 67.9744 49.2104 66.7817 46.5251 66.05H46.3251C45.8554 65.9131 45.4205 65.6771 45.0496 65.358C44.6788 65.0389 44.3806 64.644 44.1751 64.2C49.3001 63.3 57.4001 61.7 58.2501 55.375C58.2206 54.457 58.3216 53.5395 58.5501 52.65C58.8751 51.925 59.0751 52.225 60.0501 52.075C60.9386 51.9099 61.777 51.542 62.5001 51C65.8501 48.5 62.5001 44.375 59.1501 45.05C59.264 43.5542 59.0575 42.0513 58.5445 40.6416C58.0315 39.2319 57.2237 37.9478 56.1751 36.875C58.4751 36.525 61.3251 35.875 60.7751 32.925C60.5965 31.9313 60.1947 30.991 59.6001 30.175C59.4053 29.9457 59.1966 29.7287 58.9751 29.525C57.1001 28.075 53.4001 29.975 51.2251 30.3C52.0751 26.15 53.3001 22.1 54.0751 17.925C54.3457 16.6725 54.5295 15.4028 54.6251 14.125C54.8251 11 52.5001 10.15 49.8251 9.92499C46.8764 9.62905 43.9135 9.49552 40.9501 9.52499C37.7572 9.65761 34.5759 9.99161 31.4251 10.525C30.748 10.5384 30.0817 10.6965 29.4707 10.9886C28.8597 11.2806 28.3182 11.7 27.8826 12.2185C27.4469 12.737 27.1272 13.3427 26.9448 13.9949C26.7624 14.6471 26.7216 15.3307 26.8251 16C27.503 21.0591 28.5051 26.0694 29.8251 31C27.5763 30.4009 25.2305 30.2564 22.9251 30.575C22.3501 30.8509 21.8697 31.2911 21.5449 31.84C21.22 32.3888 21.0651 33.0217 21.0999 33.6586C21.1347 34.2954 21.3576 34.9077 21.7403 35.4179C22.123 35.9281 22.6484 36.3134 23.2501 36.525C21.9545 37.8006 21.0731 39.4368 20.7209 41.2205C20.3686 43.0042 20.5617 44.8526 21.2751 46.525C19.8751 46.9 18.7751 46.75 17.6001 47.95C17.0222 48.5082 16.6678 49.258 16.6034 50.0589C16.539 50.8597 16.7689 51.6566 17.2501 52.3C17.8827 52.8187 18.6329 53.1743 19.4349 53.3356C20.2369 53.4969 21.0662 53.4589 21.8501 53.225ZM60.4001 46.475C61.6001 46.475 62.7001 47.675 62.0001 48.975C61.3001 50.275 59.5001 50.15 58.3501 50.025C58.462 49.8004 58.5137 49.5506 58.5001 49.3C58.6001 47.475 57.9251 46.3 60.4001 46.475ZM36.4251 66C36.8501 66 37.6251 67.05 38.0251 67.325C38.4251 67.6 39.2751 67.95 39.1501 68.075C39.0251 68.2 38.5751 68.9 38.3001 69.2C36.9251 71.525 34.6251 68.225 33.7751 66.975C34.3251 66.75 35.8751 65.85 36.4251 66ZM42.6251 65.65H42.4751C41.8387 66.2296 41.1126 66.7024 40.3251 67.05C38.9751 67.475 37.8251 66.35 37.0001 65.475C37.3819 65.2611 37.7009 64.9508 37.9251 64.575C37.9251 64.375 37.9251 63.275 38.0751 63.2C38.2251 63.125 38.9751 63.2 39.1751 63.2C40.2144 63.1756 41.2505 63.0753 42.2751 62.9C42.2001 63.925 41.9501 64.825 42.6251 65.625V65.65ZM37.4501 80.65C36.7751 80.775 36.1251 80.925 35.4501 81.025C35.4501 80.5 35.4501 79.95 35.5751 79.425C35.7001 78.9 35.5751 78.625 36.1251 78.55C38.3001 78.5 38.7251 80.25 37.5001 80.525L37.4501 80.65ZM38.1001 78.625C34.8001 76.575 30.2751 78.85 27.5751 75.575C27.0001 76.575 29.1751 77.625 29.8501 77.85C31.5508 78.2685 33.2991 78.4618 35.0501 78.425C35.0501 78.8 35.0501 80.925 34.7501 81.125C34.4501 81.325 32.5001 81.25 32.0251 81.25C30.5129 81.2661 29.0013 81.1826 27.5001 81C26.665 81.0003 25.8467 80.7655 25.1387 80.3226C24.4307 79.8797 23.8616 79.2466 23.4965 78.4955C23.1314 77.7444 22.985 76.9058 23.0741 76.0754C23.1631 75.2451 23.484 74.4566 24.0001 73.8C24.9837 72.1707 26.3586 70.813 28.0001 69.85C29.3561 68.8293 30.8786 68.0511 32.5001 67.55C32.6751 67.55 33.0251 67.25 33.1751 67.275C33.4972 67.6492 33.7977 68.0415 34.0751 68.45C34.6251 69.025 35.2001 69.7 35.8001 70.225C37.0501 71.3 38.3001 70.625 39.1751 69.425L39.4501 69.075C39.1001 71.45 38.8751 73.85 38.5751 76.25C38.4624 77.0089 38.3038 77.7603 38.1001 78.5V78.625ZM38.9501 79.25C39.5571 78.5834 40.3492 78.1133 41.2251 77.9C41.4808 78.7108 41.632 79.5509 41.6751 80.4C41.0501 80.3 38.5001 80.5 38.9501 79.125V79.25ZM47.2751 68.275C49.1463 68.8051 50.9133 69.6506 52.5001 70.775C53.8501 71.775 53.7001 73.275 53.7001 74.9C53.7001 77 50.6001 78.725 48.9001 79.3C47.3518 79.8292 45.7508 80.1896 44.1251 80.375C43.7751 80.375 42.6251 80.625 42.4001 80.375C42.1522 79.4846 41.9931 78.5718 41.9251 77.65C43.3943 77.4287 44.8358 77.0516 46.2251 76.525C46.6649 76.3386 47.0909 76.1214 47.5001 75.875C47.8251 75.65 50.1251 73.85 49.4501 72.85C47.2501 77.175 42.1001 75.575 38.8251 78.25C39.3501 75.4 39.5001 72.425 39.9251 69.6C40.3751 72.1 42.4251 71.075 43.7001 70.025C44.2805 69.5863 44.8316 69.1103 45.3501 68.6C46.3001 67.6 45.9251 67.675 47.2751 68.15V68.275ZM45.4251 67.55C44.9001 68.225 41.8751 71.25 40.9751 70.4C40.62 69.6433 40.3597 68.8456 40.2001 68.025C40.6826 67.7486 41.1838 67.5064 41.7001 67.3C42.1682 67.0031 42.6113 66.6687 43.0251 66.3C43.0251 66.3 45.1751 67.325 45.4251 67.425V67.55ZM56.4501 44.425C58.8001 46.4 57.5751 51.225 56.4501 53.575C54.3738 57.2058 51.0657 59.9729 47.1251 61.375C38.7751 64.825 27.4751 62.6 24.2001 53.425C23.3972 51.2018 23.1067 48.8261 23.3501 46.475C23.6056 45.0398 24.3687 43.7443 25.5001 42.825C27.1001 41.25 28.5751 39.575 30.1001 37.975C30.8661 37.4047 31.7386 36.9937 32.666 36.7661C33.5935 36.5385 34.5572 36.499 35.5001 36.65C37.7976 36.3809 40.1239 36.7802 42.2001 37.8C42.3751 37.95 42.0751 37.8 42.6001 38.125C44.4458 39.4796 46.4744 40.5654 48.6251 41.35C51.3826 41.88 54.0291 42.8777 56.4501 44.3V44.425ZM58.7751 33.425C59.5001 34.65 55.2501 34.925 54.3251 34.975C52.2751 35.1 50.2501 35.35 48.2001 35.5C44.4243 35.7915 40.6357 35.8833 36.8501 35.775L28.8501 35.525C27.4001 35.525 24.0751 35.75 23.4501 34.025C29.3194 34.8699 35.2458 35.2545 41.1751 35.175C44.3135 35.1384 47.4458 34.8878 50.5501 34.425C52.1251 34.2 53.7001 33.9 55.2501 33.65C56.2251 33.35 58.3751 32.425 58.7751 33.3V33.425ZM52.0501 14.9H52.3251C52.0501 16.875 51.7751 19.05 51.5501 20.75C51.4001 21.8 51.0001 27.225 50.0501 27.525C50.4251 25.025 50.5751 22.525 50.9501 20.325C51.0751 19.425 51.2751 14.975 52.0501 14.9ZM49.8251 17.4C49.9501 16.05 49.6001 15.425 50.9251 15.125C50.7751 17.05 50.4251 18.875 50.1751 20.825C50.0001 22.175 49.9501 27.4 48.9501 27.575C49.1001 25.35 49.2001 23.1 49.4501 20.9C49.6001 19.825 49.7251 18.65 49.8251 17.5V17.4ZM48.4001 16.15C48.6251 15.425 48.4001 15.55 49.3001 15.425C49.3001 17.525 48.8751 19.625 48.6751 21.725C48.6751 22.875 48.5251 24.025 48.4501 25.175C48.3751 26.325 48.7501 27.675 47.6251 27.675C47.7501 25.4 47.9251 23.175 48.1001 20.925C48.1001 19.825 48.2751 18.725 48.3251 17.625C48.304 17.1653 48.3292 16.7047 48.4001 16.25V16.15ZM46.4751 21.15C46.4751 20.05 46.4751 18.925 46.6001 17.8C46.5248 17.2944 46.5248 16.7805 46.6001 16.275C46.8751 15.625 46.7751 15.75 47.6501 15.65C47.6501 18.15 47.3751 20.85 47.1501 23.45C47.1931 24.7052 47.1093 25.9616 46.9001 27.2C46.7251 27.775 46.9001 28.1 46.0251 27.975C46.2751 25.75 46.3501 23.5 46.4751 21.2V21.15ZM45.4251 16C45.6243 15.9741 45.826 15.9741 46.0251 16C45.9001 18.1 45.8501 20.2 45.7501 22.3C45.7501 23.35 45.7501 24.4 45.6001 25.475C45.6001 26.025 45.6001 26.575 45.6001 27.15C45.6001 27.725 45.8251 28.175 44.9001 28.25C45.0001 25.775 45.0001 23.5 45.0001 21C45.0001 19.775 45.0001 18.5 45.0001 17.3C45.0001 16.725 44.8001 16.15 45.4251 16ZM43.4751 21.475C43.4751 20.35 43.4751 19.225 43.4751 18.1C43.4751 16.975 43.0751 16.275 44.2751 16.125C44.2751 18.45 44.2751 20.75 44.2751 23.05C44.2751 24.175 44.2751 25.275 44.2751 26.375C44.2751 27.475 44.5001 28.25 43.1501 28.25C43.2001 26 43.4001 23.675 43.4751 21.4V21.475ZM41.9251 21.825C41.9251 20.75 41.9251 19.65 41.9251 18.55C41.8502 18.036 41.8502 17.5139 41.9251 17C42.1501 16.275 41.9251 16.4 42.8751 16.275C42.8751 18.775 42.8751 21 42.6251 23.35C42.6251 24.55 42.4501 25.85 42.4001 26.95C42.4001 27.7 42.6001 28.525 41.5751 28.25C41.7001 26 41.8751 23.9 41.9251 21.75V21.825ZM40.2251 25.6C40.2251 23.95 40.4001 22.325 40.4501 20.6C40.4501 19.9 40.4501 19.2 40.4501 18.5C40.4501 17.8 40.1001 16.45 41.2751 16.375C41.2751 20.325 41.0251 24.225 40.9001 28.175C40.6751 28.175 40.3001 28.175 40.1001 28.175C40.2001 27.275 40.2001 26.4 40.2251 25.525V25.6ZM40.0001 16.45C39.8751 18.625 39.8501 20.825 39.7251 23.025C39.7251 24 39.7251 24.95 39.7251 25.925C39.7251 26.9 40.1001 28.15 39.0751 28.125C39.2751 24.2359 39.2751 20.3391 39.0751 16.45H40.0001ZM37.6501 16.45C38.2501 15.9 38.2501 17.125 38.2751 17.25C38.4794 19.4773 38.5212 21.7166 38.4001 23.95C38.4001 25 38.4001 26.075 38.4001 27.15C38.4001 27.325 38.5501 28.6 37.9001 28.075C37.7501 27.95 37.9001 26.675 37.9001 26.5C37.9001 24 37.9001 21.725 37.9001 19.35C37.5001 18.95 37.2751 16.75 37.5001 16.475L37.6501 16.45ZM36.6751 16.45H36.9751C36.9751 20.325 36.9751 24.2 37.1251 28.075C36.1001 28.075 36.4751 27.3 36.4501 26.375C36.4251 25.45 36.4501 24.225 36.3251 23.15C36.1751 20.925 36.1001 18.7 36.0251 16.45C36.2171 16.4387 36.4098 16.4471 36.6001 16.475L36.6751 16.45ZM35.3501 16.45C35.4751 20.3 35.8001 24.15 35.8001 28.025C34.7751 28.025 35.1251 26.675 35.1001 25.775C35.0751 24.875 35.1001 23.65 35.1001 22.6C34.9751 20.55 34.8501 18.5 34.6251 16.45H35.3501ZM33.8001 16.45C34.2501 20.25 34.3501 24.075 34.5001 27.9C33.7751 27.9 33.7501 23.325 33.6501 22.45C33.4251 20.45 33.1251 18.45 32.9501 16.45H33.8001ZM32.2751 16.45C32.5751 20.25 33.1001 23.95 33.5001 27.825C32.5001 27.925 32.5001 24.7 32.5001 23.95C32.1501 21.225 31.7251 18.95 31.4501 16.45C31.7011 16.4565 31.9522 16.4397 32.2001 16.4L32.2751 16.45ZM31.2501 19.95C31.4001 21.025 31.6751 22.45 31.7501 23.25C31.9501 24.725 32.0751 26.175 32.2751 27.65C31.5251 27.5 30.5001 19.825 30.5001 18.85C30.5001 17.875 30.3001 17.025 30.2501 16.125C31.2501 16.4 31.0001 18.775 31.1751 19.9L31.2501 19.95ZM28.9751 16.5C28.9751 16.5 28.9751 16.25 28.9751 16.5V16.5ZM28.9751 16.5C28.9751 16.2 28.9751 15.875 28.8501 15.575C29.0406 15.6795 29.2418 15.7633 29.4501 15.825C29.8196 19.6961 30.4038 23.5437 31.2001 27.35C30.3751 27.1 30.0751 23.35 29.9001 22.35C29.5751 20.45 29.2501 18.5 28.9751 16.5ZM23.4751 32.35C23.8501 32 24.8751 32.2 25.3251 32.35C26.5113 32.523 27.6878 32.7567 28.8501 33.05C30.7751 33.425 32.7251 33.8 34.6751 34.025C39.0996 34.3759 43.5505 34.1743 47.9251 33.425C49.2751 33.225 50.6001 32.95 51.9501 32.65C53.8258 32.0226 55.7486 31.5461 57.7001 31.225C58.1251 31.225 58.3501 31.875 58.4751 32.25C52.4945 33.842 46.3386 34.6818 40.1501 34.75C34.6289 34.7458 29.1179 34.2775 23.6751 33.35C23.0751 33.175 23.0251 32.725 23.4751 32.35ZM18.4751 50.075C18.6001 48.5 20.0001 48.2 21.3501 48.5C21.9001 48.5 22.2501 48.5 22.3751 48.9C22.5361 49.7659 22.6198 50.6443 22.6251 51.525C21.4001 51 18.0251 52.7 18.4001 50.075H18.4751Z" fill="#7D9D85"/>
<path d="M29.525 57.5C31.0161 57.5 32.225 56.2911 32.225 54.8C32.225 53.3088 31.0161 52.1 29.525 52.1C28.0338 52.1 26.825 53.3088 26.825 54.8C26.825 56.2911 28.0338 57.5 29.525 57.5Z" fill="#FFBBBC"/>
<path d="M51.2 57.35C52.6912 57.35 53.9 56.1411 53.9 54.65C53.9 53.1588 52.6912 51.95 51.2 51.95C49.7088 51.95 48.5 53.1588 48.5 54.65C48.5 56.1411 49.7088 57.35 51.2 57.35Z" fill="#FFBBBC"/>
<path d="M28.3751 48.65C28.7341 48.65 29.0251 48.359 29.0251 48C29.0251 47.641 28.7341 47.35 28.3751 47.35C28.0161 47.35 27.7251 47.641 27.7251 48C27.7251 48.359 28.0161 48.65 28.3751 48.65Z" fill="white"/>
<path d="M49.275 47.325C49.634 47.325 49.925 47.034 49.925 46.675C49.925 46.316 49.634 46.025 49.275 46.025C48.916 46.025 48.625 46.316 48.625 46.675C48.625 47.034 48.916 47.325 49.275 47.325Z" fill="white"/>
<path d="M52.2 12.8C52.2 13.55 47.4 14.25 41.45 14.35C35.5 14.45 29.3 13.9 29.3 13.15C29.3 12.4 35.5 11.35 41.425 11.25C47.35 11.15 52.175 12.075 52.2 12.8Z" fill="#E1D8C7"/>
</svg>
