<svg width="36" height="36" viewBox="0 0 36 36" fill="none" xmlns="http://www.w3.org/2000/svg">
<path d="M12.0571 3.06848C11.4962 3.06848 10.9582 3.29131 10.5616 3.68795C10.165 4.08459 9.94214 4.62255 9.94214 5.18348V30.8166C9.94214 31.3775 10.165 31.9155 10.5616 32.3121C10.9582 32.7088 11.4962 32.9316 12.0571 32.9316H23.9428C24.5037 32.9316 25.0417 32.7088 25.4383 32.3121C25.8349 31.9155 26.0578 31.3775 26.0578 30.8166V5.18348C26.0578 4.62255 25.8349 4.08459 25.4383 3.68795C25.0417 3.29131 24.5037 3.06848 23.9428 3.06848H12.0571ZM25.4953 5.18348V30.8166C25.4945 31.2281 25.3307 31.6226 25.0397 31.9136C24.7487 32.2046 24.3543 32.3684 23.9428 32.3691H12.0571C11.6456 32.3684 11.2512 32.2046 10.9602 31.9136C10.6692 31.6226 10.5054 31.2281 10.5046 30.8166V5.18348C10.5054 4.77196 10.6692 4.37751 10.9602 4.08652C11.2512 3.79553 11.6456 3.63172 12.0571 3.63098H23.9428C24.3543 3.63172 24.7487 3.79553 25.0397 4.08652C25.3307 4.37751 25.4945 4.77196 25.4953 5.18348Z" fill="#252B23"/>
<path d="M11.5566 6.82312V28.4794C11.5566 28.554 11.5863 28.6255 11.639 28.6782C11.6918 28.731 11.7633 28.7606 11.8379 28.7606H24.1623C24.2369 28.7606 24.3084 28.731 24.3611 28.6782C24.4139 28.6255 24.4435 28.554 24.4435 28.4794V6.82312C24.4435 6.74853 24.4139 6.67699 24.3611 6.62425C24.3084 6.5715 24.2369 6.54187 24.1623 6.54187H11.8379C11.7633 6.54187 11.6918 6.5715 11.639 6.62425C11.5863 6.67699 11.5566 6.74853 11.5566 6.82312ZM12.1191 7.10437H23.881V28.1981H12.1191V7.10437Z" fill="#252B23"/>
<path d="M16.6865 5.35779H19.3134C19.388 5.35779 19.4595 5.32816 19.5123 5.27541C19.565 5.22267 19.5946 5.15113 19.5946 5.07654C19.5946 5.00195 19.565 4.93041 19.5123 4.87766C19.4595 4.82492 19.388 4.79529 19.3134 4.79529H16.6865C16.6119 4.79529 16.5404 4.82492 16.4876 4.87766C16.4349 4.93041 16.4053 5.00195 16.4053 5.07654C16.4053 5.15113 16.4349 5.22267 16.4876 5.27541C16.5404 5.32816 16.6119 5.35779 16.6865 5.35779Z" fill="#252B23"/>
<path d="M15.3843 5.35779C15.4399 5.35779 15.4943 5.34129 15.5405 5.31039C15.5868 5.27949 15.6228 5.23556 15.6441 5.18417C15.6654 5.13278 15.671 5.07623 15.6601 5.02167C15.6493 4.96711 15.6225 4.917 15.5832 4.87766C15.5438 4.83833 15.4937 4.81154 15.4391 4.80069C15.3846 4.78984 15.328 4.79541 15.2766 4.8167C15.2253 4.83798 15.1813 4.87403 15.1504 4.92028C15.1195 4.96654 15.103 5.02091 15.103 5.07654C15.103 5.11371 15.1104 5.15051 15.1247 5.18482C15.139 5.21913 15.16 5.25026 15.1864 5.27641C15.2128 5.30257 15.2441 5.32322 15.2786 5.33719C15.313 5.35116 15.3499 5.35816 15.3871 5.35779H15.3843Z" fill="#252B23"/>
<path d="M17.9999 29.2781C17.7478 29.2781 17.5013 29.3529 17.2918 29.493C17.0822 29.6331 16.9189 29.8323 16.8225 30.0652C16.7262 30.2982 16.7011 30.5545 16.7505 30.8017C16.7999 31.049 16.9215 31.276 17.1 31.454C17.2785 31.6321 17.5057 31.7532 17.7531 31.8021C18.0004 31.8509 18.2566 31.8253 18.4894 31.7284C18.7222 31.6315 18.9209 31.4678 19.0606 31.2579C19.2003 31.048 19.2745 30.8014 19.274 30.5493C19.2732 30.2119 19.1386 29.8886 18.8998 29.6502C18.6609 29.4119 18.3373 29.2781 17.9999 29.2781ZM17.9999 31.2609C17.8592 31.2609 17.7216 31.2192 17.6046 31.141C17.4876 31.0628 17.3963 30.9517 17.3425 30.8216C17.2886 30.6916 17.2745 30.5485 17.302 30.4105C17.3295 30.2725 17.3972 30.1457 17.4967 30.0462C17.5963 29.9467 17.723 29.8789 17.8611 29.8514C17.9991 29.824 18.1422 29.8381 18.2722 29.8919C18.4022 29.9458 18.5133 30.037 18.5915 30.154C18.6697 30.271 18.7115 30.4086 18.7115 30.5493C18.7115 30.738 18.6365 30.919 18.503 31.0525C18.3696 31.1859 18.1886 31.2609 17.9999 31.2609Z" fill="#252B23"/>
<path d="M20.1123 13.6575C19.6814 13.6612 19.2592 13.7787 18.8883 13.998C18.5174 14.2172 18.211 14.5306 18.0001 14.9062C17.7902 14.529 17.4843 14.214 17.1133 13.9932C16.7423 13.7724 16.3196 13.6536 15.8879 13.649C15.5545 13.6574 15.226 13.7316 14.9213 13.8673C14.6167 14.003 14.3419 14.1976 14.1126 14.4399C13.8834 14.6822 13.7044 14.9674 13.5857 15.2791C13.4671 15.5908 13.4112 15.9229 13.4213 16.2562C13.4213 16.2562 13.4382 16.5375 13.4382 16.5544C13.6323 18.6834 17.6795 21.2119 17.851 21.3187C17.8942 21.3515 17.946 21.371 18.0001 21.375C18.0527 21.3752 18.1044 21.3605 18.1491 21.3328C18.3207 21.2259 22.3679 18.6975 22.562 16.5712C22.562 16.5515 22.5788 16.2731 22.5788 16.2703C22.5897 15.9365 22.5344 15.6038 22.4161 15.2914C22.2978 14.9791 22.1188 14.6932 21.8896 14.4503C21.6603 14.2075 21.3852 14.0124 21.0802 13.8763C20.7751 13.7402 20.4462 13.6658 20.1123 13.6575ZM22.0023 16.5122C21.8673 17.9831 19.1898 19.9856 18.0001 20.7534C16.802 19.9856 14.1329 17.9831 13.9979 16.5094C13.9979 16.4784 13.9979 16.2703 13.9838 16.2647C13.9737 16.0052 14.015 15.7462 14.1053 15.5028C14.1957 15.2593 14.3333 15.0361 14.5103 14.846C14.6873 14.656 14.9001 14.5028 15.1365 14.3954C15.373 14.2879 15.6283 14.2283 15.8879 14.22C16.3176 14.2322 16.731 14.3873 17.0626 14.6609C17.3942 14.9344 17.6251 15.3107 17.7188 15.7303C17.7341 15.7911 17.7692 15.8451 17.8186 15.8837C17.8681 15.9222 17.9289 15.9432 17.9916 15.9432C18.0543 15.9432 18.1152 15.9222 18.1647 15.8837C18.2141 15.8451 18.2492 15.7911 18.2645 15.7303C18.3585 15.3094 18.5907 14.932 18.924 14.6583C19.2573 14.3846 19.6727 14.2303 20.1038 14.22C20.6258 14.2405 21.1186 14.4662 21.4751 14.848C21.8317 15.2298 22.0231 15.7369 22.0079 16.259C22.0135 16.2956 22.0023 16.4812 22.0023 16.5122Z" fill="#252B23"/>
</svg>
