<svg width="38" height="37" viewBox="0 0 38 37" fill="none" xmlns="http://www.w3.org/2000/svg">
<path d="M18.8034 9.29047C18.849 9.31861 18.9015 9.33351 18.9551 9.33351C19.0087 9.33351 19.0613 9.31861 19.1069 9.29047C19.4248 9.09102 22.2201 7.31906 22.3617 5.76102C22.3617 5.74656 22.3617 5.65406 22.3617 5.63094C22.3617 5.60781 22.3617 5.53266 22.3617 5.52977C22.3749 5.01704 22.1842 4.52002 21.8314 4.14773C21.4787 3.77543 20.9926 3.55828 20.4799 3.54391C20.1738 3.5471 19.8732 3.62549 19.6046 3.77217C19.3359 3.91885 19.1074 4.12933 18.9392 4.38508C18.7719 4.1292 18.5439 3.91856 18.2757 3.77183C18.0074 3.6251 17.7071 3.54681 17.4014 3.54391C16.8907 3.56127 16.4076 3.77974 16.0573 4.1517C15.707 4.52366 15.5179 5.01899 15.5312 5.52977C15.5312 5.52977 15.5312 5.59336 15.5312 5.61937C15.5312 5.64539 15.5312 5.74078 15.5312 5.75234C15.6902 7.31906 18.4854 9.09102 18.8034 9.29047ZM17.4159 4.12203C17.7113 4.13076 17.9954 4.23745 18.2235 4.4253C18.4517 4.61316 18.6109 4.87153 18.6762 5.15977C18.6928 5.221 18.7291 5.27506 18.7796 5.3136C18.83 5.35214 18.8917 5.37302 18.9551 5.37302C19.0186 5.37302 19.0803 5.35214 19.1307 5.3136C19.1811 5.27506 19.2174 5.221 19.2341 5.15977C19.2993 4.87153 19.4585 4.61316 19.6867 4.4253C19.9148 4.23745 20.199 4.13076 20.4944 4.12203C20.853 4.13708 21.1911 4.29312 21.4353 4.55621C21.6794 4.8193 21.8098 5.16815 21.798 5.52688V5.60492C21.798 5.61937 21.798 5.67719 21.798 5.70031C21.7055 6.72359 19.8469 8.12844 18.9652 8.70078C18.0836 8.12266 16.2278 6.72359 16.1353 5.69742C16.1353 5.68297 16.1353 5.61359 16.1353 5.59625V5.52977C16.1226 5.17436 16.2495 4.82809 16.4888 4.56502C16.7281 4.30194 17.0608 4.14295 17.4159 4.12203Z" fill="#252B23"/>
<path d="M11.6896 12.2794C12.1387 12.2789 12.5804 12.164 12.9729 11.9456C13.3654 11.7272 13.6958 11.4124 13.933 11.0309C14.1701 10.6494 14.3062 10.2138 14.3284 9.7652C14.3506 9.31657 14.2582 8.86967 14.0599 8.46664C14.2453 8.32793 14.3984 8.15066 14.5087 7.94706C14.619 7.74345 14.6838 7.51835 14.6987 7.28727C14.6987 6.70914 14.6207 6.37672 14.1813 5.65406C14.157 5.60998 14.1208 5.57361 14.0769 5.54908C14.0329 5.52455 13.983 5.51285 13.9327 5.51531C13.8825 5.51532 13.8332 5.52838 13.7896 5.55322C13.746 5.57805 13.7097 5.6138 13.6841 5.65695C13.5251 5.93156 13.1493 6.57906 11.1577 5.81016C10.8847 5.72295 10.5946 5.70369 10.3125 5.75407C10.0304 5.80444 9.76485 5.92292 9.53893 6.09922C9.26066 6.27197 9.02729 6.50822 8.85796 6.7886C8.68863 7.06897 8.58816 7.38548 8.56479 7.71219C8.55072 8.38975 8.71628 9.05895 9.04464 9.6518C9.04997 10.35 9.33089 11.0179 9.82625 11.51C10.3216 12.0021 10.9913 12.2786 11.6896 12.2794ZM11.6896 11.7012C11.1414 11.7012 10.6157 11.4835 10.2281 11.0959C9.84051 10.7083 9.62276 10.1826 9.62276 9.63445C9.62276 9.63445 9.62276 9.61422 9.62276 9.60555C9.62578 9.58155 9.62578 9.55727 9.62276 9.53328C9.65111 9.13061 9.75919 8.73758 9.94073 8.37703C10.0162 8.23187 10.1137 8.09926 10.2298 7.98391C10.6903 8.38522 11.2329 8.68117 11.8196 8.85109C12.3922 9.01148 13.0017 8.97898 13.554 8.75859C13.683 9.02951 13.7502 9.32572 13.7506 9.62578C13.7517 9.89744 13.6993 10.1667 13.5963 10.418C13.4933 10.6694 13.3418 10.898 13.1503 11.0908C12.9589 11.2836 12.7314 11.4367 12.4807 11.5414C12.2301 11.6462 11.9612 11.7005 11.6896 11.7012ZM9.86846 6.57906C10.0982 6.40464 10.3753 6.30386 10.6634 6.29C10.762 6.28783 10.8601 6.30451 10.9524 6.33914C12.3631 6.88258 13.3141 6.87969 13.9009 6.31312C14.0642 6.60769 14.1413 6.94226 14.1235 7.27859C14.1076 7.4259 14.0604 7.56812 13.9852 7.69574C13.9099 7.82336 13.8082 7.93343 13.687 8.01859C13.4376 8.19293 13.1514 8.30737 12.8506 8.35299C12.5497 8.39862 12.2424 8.3742 11.9526 8.28164C11.3879 8.10282 10.8711 7.79844 10.4408 7.39133C10.3973 7.35169 10.3426 7.3263 10.2843 7.31855C10.2259 7.3108 10.1665 7.32107 10.1142 7.34797C9.81854 7.52427 9.5813 7.78362 9.43198 8.09375C9.35627 8.24339 9.29061 8.39789 9.23542 8.55625C9.17527 8.27986 9.14427 7.99793 9.14292 7.71508C9.16923 7.48294 9.24829 7.25989 9.37404 7.06299C9.49979 6.86609 9.66891 6.70056 9.86846 6.57906Z" fill="#252B23"/>
<path d="M14.4414 13.8519C14.4414 13.9285 14.4719 14.0021 14.5261 14.0563C14.5803 14.1105 14.6538 14.1409 14.7305 14.1409C15.3413 14.1508 15.9233 14.402 16.3496 14.8396C16.7758 15.2772 17.0116 15.8657 17.0054 16.4766V20.0118C17.0054 21.8069 17.9737 22.9227 19.5347 22.9227C19.6114 22.9227 19.6849 22.8922 19.7391 22.838C19.7933 22.7838 19.8237 22.7103 19.8237 22.6336C19.8237 22.5569 19.7933 22.4834 19.7391 22.4292C19.6849 22.375 19.6114 22.3445 19.5347 22.3445C17.7223 22.3445 17.5835 20.5581 17.5835 20.0118V16.4766C17.5889 15.7129 17.2919 14.9781 16.7573 14.4327C16.2228 13.8873 15.4941 13.5756 14.7305 13.5657C14.6543 13.5657 14.5812 13.5958 14.5271 13.6493C14.473 13.7029 14.4422 13.7757 14.4414 13.8519Z" fill="#252B23"/>
<path d="M8.63705 22.9227C8.66982 22.9218 8.70215 22.9149 8.73245 22.9024L9.09088 31.7246L7.67448 32.9531C7.62976 32.9919 7.59803 33.0434 7.58355 33.1008C7.56908 33.1582 7.57256 33.2186 7.59354 33.274C7.61404 33.3289 7.65072 33.3762 7.69873 33.4097C7.74673 33.4433 7.8038 33.4615 7.86237 33.4619H15.5312C15.5903 33.4621 15.648 33.4442 15.6965 33.4106C15.7451 33.377 15.7822 33.3293 15.8029 33.274C15.8239 33.2186 15.8274 33.1582 15.8129 33.1008C15.7984 33.0434 15.7667 32.9919 15.722 32.9531L14.2767 31.7073L14.8548 17.7716C14.8548 17.6949 14.8243 17.6214 14.7701 17.5672C14.7159 17.513 14.6424 17.4825 14.5657 17.4825C14.4891 17.4825 14.4155 17.513 14.3613 17.5672C14.3071 17.6214 14.2767 17.6949 14.2767 17.7716L13.6985 31.6639H11.9642V23.8592C11.9642 23.7826 11.9337 23.709 11.8795 23.6548C11.8253 23.6006 11.7518 23.5702 11.6751 23.5702C11.5984 23.5702 11.5249 23.6006 11.4707 23.6548C11.4165 23.709 11.386 23.7826 11.386 23.8592V31.6639H9.65166L9.21518 20.9686H11.8572C11.9339 20.9686 12.0074 20.9381 12.0616 20.8839C12.1158 20.8297 12.1463 20.7562 12.1463 20.6795C12.1463 20.6029 12.1158 20.5293 12.0616 20.4751C12.0074 20.4209 11.9339 20.3905 11.8572 20.3905H9.20651L9.09955 17.7658C9.09804 17.7278 9.08906 17.6905 9.07313 17.656C9.0572 17.6216 9.03463 17.5905 9.00671 17.5648C8.9788 17.539 8.94608 17.519 8.91043 17.5059C8.87478 17.4927 8.83689 17.4868 8.79893 17.4883C8.76097 17.4898 8.72368 17.4988 8.68919 17.5147C8.6547 17.5306 8.62369 17.5532 8.59792 17.5811C8.57215 17.609 8.55213 17.6418 8.53901 17.6774C8.52588 17.7131 8.51991 17.7509 8.52143 17.7889L8.70932 22.385C8.68533 22.382 8.66105 22.382 8.63705 22.385C8.02676 22.3751 7.44512 22.1243 7.01897 21.6873C6.59282 21.2504 6.35671 20.6626 6.36213 20.0523V16.4766C6.35671 15.8662 6.59282 15.2785 7.01897 14.8415C7.44512 14.4045 8.02676 14.1537 8.63705 14.1438C8.71372 14.1438 8.78724 14.1134 8.84145 14.0592C8.89566 14.005 8.92612 13.9314 8.92612 13.8548C8.92612 13.7781 8.89566 13.7046 8.84145 13.6504C8.78724 13.5962 8.71372 13.5657 8.63705 13.5657C7.87343 13.5756 7.14475 13.8873 6.61018 14.4327C6.07561 14.9781 5.7786 15.7129 5.78401 16.4766V20.0118C5.7786 20.7755 6.07561 21.5103 6.61018 22.0557C7.14475 22.6011 7.87343 22.9127 8.63705 22.9227ZM13.976 32.2102L14.7507 32.8809H11.9728V32.2131L13.976 32.2102ZM11.3947 32.2102V32.878H8.63995L9.41463 32.2102H11.3947Z" fill="#252B23"/>
<path d="M10.6171 17.8612C10.6108 17.9202 10.623 17.9798 10.6518 18.0317L11.4843 19.4973C11.5094 19.5419 11.5459 19.5791 11.5901 19.605C11.6342 19.6309 11.6845 19.6446 11.7357 19.6447C11.787 19.6446 11.8372 19.6309 11.8814 19.605C11.9256 19.5791 11.9621 19.5419 11.9872 19.4973L12.8168 18.0317C12.8467 17.9801 12.8598 17.9205 12.8544 17.8612L12.5278 14.3664C12.5213 14.2943 12.488 14.2273 12.4344 14.1786C12.3809 14.1299 12.3111 14.1031 12.2387 14.1034H11.2154C11.1431 14.1031 11.0732 14.1299 11.0197 14.1786C10.9662 14.2273 10.9329 14.2943 10.9264 14.3664L10.6171 17.8612ZM11.4843 14.6815H11.9757L12.2647 17.8236L11.73 18.7688L11.1952 17.8236L11.4843 14.6815Z" fill="#252B23"/>
<path d="M12.2332 13.6784C12.3098 13.6784 12.3833 13.648 12.4376 13.5938C12.4918 13.5396 12.5222 13.466 12.5222 13.3894C12.5222 13.3127 12.4918 13.2392 12.4376 13.185C12.3833 13.1308 12.3098 13.1003 12.2332 13.1003H11.2214C11.1448 13.1003 11.0712 13.1308 11.017 13.185C10.9628 13.2392 10.9324 13.3127 10.9324 13.3894C10.9324 13.466 10.9628 13.5396 11.017 13.5938C11.0712 13.648 11.1448 13.6784 11.2214 13.6784H12.2332Z" fill="#252B23"/>
<path d="M28.987 8.34234C28.6861 7.82002 28.2528 7.38621 27.7309 7.08457C27.209 6.78293 26.6168 6.62411 26.014 6.62411C25.4112 6.62411 24.819 6.78293 24.2971 7.08457C23.7752 7.38621 23.3419 7.82002 23.041 8.34234C23.0005 8.4175 22.8994 8.64875 22.8965 8.65453L20.0434 15.514C19.5578 16.4245 19.8555 17.6126 20.6794 18.0577C20.8967 18.1756 21.1393 18.239 21.3865 18.2425C21.6337 18.246 21.8781 18.1896 22.0987 18.078C22.0987 18.1416 22.0987 18.1994 22.0813 18.2543C21.957 20.0291 20.9048 20.931 18.9565 20.931C18.8799 20.931 18.8064 20.9615 18.7521 21.0157C18.6979 21.0699 18.6675 21.1434 18.6675 21.2201C18.6675 21.2967 18.6979 21.3703 18.7521 21.4245C18.8064 21.4787 18.8799 21.5091 18.9565 21.5091C21.2315 21.5091 22.512 20.3962 22.6594 18.2948C22.6594 18.2456 22.6594 18.1936 22.6594 18.1416L22.7288 18.182C22.9625 18.3614 23.2363 18.4815 23.5266 18.5318C23.5731 18.5311 23.6187 18.5192 23.6596 18.4971C23.7472 18.7573 23.8605 19.0081 23.9978 19.2458C21.6015 20.5032 19.9798 23.7031 19.9798 27.2268C19.9411 29.3973 20.5952 31.5237 21.8472 33.2971C21.8741 33.333 21.909 33.3621 21.9491 33.3822C21.9893 33.4023 22.0335 33.4127 22.0784 33.4127H29.9467C29.9916 33.4127 30.0358 33.4023 30.076 33.3822C30.1161 33.3621 30.151 33.333 30.1779 33.2971C31.4299 31.5237 32.084 29.3973 32.0453 27.2268C32.0453 24.5385 31.1058 22.0439 29.5912 20.4512C29.892 19.7603 30.0134 19.0046 29.9438 18.2543C29.9438 18.1994 29.9438 18.1416 29.9438 18.078C30.1639 18.1896 30.4078 18.246 30.6545 18.2425C30.9012 18.239 31.1434 18.1756 31.3602 18.0577C32.184 17.6126 32.4818 16.4245 32.0077 15.54L29.1171 8.64875C29.1171 8.64875 29.0246 8.42039 28.987 8.34234ZM27.4521 19.0781V19.0926C27.401 19.1707 27.3398 19.2417 27.27 19.3036C26.9062 19.5693 26.4674 19.7125 26.0169 19.7125C25.5664 19.7125 25.1276 19.5693 24.7638 19.3036C24.6932 19.2402 24.6319 19.1673 24.5817 19.0868C24.2525 18.5487 24.0545 17.9407 24.0036 17.312C24.0033 17.103 24.0737 16.9001 24.2034 16.7364C24.3331 16.5726 24.5144 16.4575 24.7179 16.4099C24.9213 16.3623 25.1349 16.385 25.3238 16.4743C25.5127 16.5635 25.6658 16.7141 25.7582 16.9015C25.7822 16.9492 25.819 16.9892 25.8644 17.0173C25.9098 17.0454 25.9621 17.0603 26.0154 17.0605C26.0693 17.0608 26.1222 17.0462 26.1682 17.0181C26.2142 16.99 26.2514 16.9496 26.2756 16.9015C26.3688 16.7157 26.522 16.5667 26.7102 16.4786C26.8985 16.3905 27.111 16.3684 27.3134 16.4158C27.5158 16.4632 27.6963 16.5774 27.8258 16.74C27.9553 16.9026 28.0263 17.1041 28.0273 17.312C27.976 17.9375 27.779 18.5423 27.4521 19.0781ZM29.7993 32.8548H22.2258C21.7078 32.1161 21.3088 31.3007 21.0436 30.4383C21.4995 30.4295 21.9335 30.2415 22.2519 29.9151C22.4152 30.0814 22.6099 30.2135 22.8248 30.3039C23.0397 30.3942 23.2704 30.4409 23.5035 30.4412C23.7373 30.4426 23.9689 30.3967 24.1845 30.3063C24.4001 30.2158 24.5952 30.0828 24.758 29.9151C24.9216 30.0818 25.1169 30.2143 25.3323 30.3047C25.5477 30.3952 25.7789 30.4417 26.0126 30.4417C26.2462 30.4417 26.4775 30.3952 26.6929 30.3047C26.9083 30.2143 27.1035 30.0818 27.2671 29.9151C27.4307 30.0818 27.6259 30.2143 27.8413 30.3047C28.0567 30.3952 28.288 30.4417 28.5216 30.4417C28.7552 30.4417 28.9865 30.3952 29.2019 30.3047C29.4173 30.2143 29.6125 30.0818 29.7762 29.9151C30.0938 30.2408 30.5267 30.4287 30.9815 30.4383C30.7152 31.2966 30.3163 32.1081 29.7993 32.8433V32.8548ZM31.4672 27.2384C31.4679 28.1312 31.3572 29.0207 31.1376 29.8862C31.1029 29.8714 31.0656 29.8635 31.0278 29.863C30.8241 29.8639 30.6237 29.8108 30.4471 29.7093C30.2704 29.6078 30.1237 29.4614 30.0219 29.2849C29.9961 29.2424 29.9598 29.2073 29.9165 29.183C29.8732 29.1586 29.8244 29.1458 29.7747 29.1458C29.725 29.1458 29.6762 29.1586 29.6329 29.183C29.5896 29.2073 29.5533 29.2424 29.5276 29.2849C29.4228 29.4597 29.2746 29.6044 29.0973 29.7049C28.92 29.8054 28.7196 29.8582 28.5158 29.8582C28.312 29.8582 28.1117 29.8054 27.9344 29.7049C27.7571 29.6044 27.6089 29.4597 27.5041 29.2849C27.4784 29.2424 27.4421 29.2073 27.3988 29.183C27.3555 29.1586 27.3067 29.1458 27.257 29.1458C27.2073 29.1458 27.1585 29.1586 27.1152 29.183C27.0719 29.2073 27.0356 29.2424 27.0098 29.2849C26.9056 29.4605 26.7576 29.6059 26.5802 29.7069C26.4028 29.8078 26.2022 29.861 25.9981 29.861C25.794 29.861 25.5934 29.8078 25.416 29.7069C25.2386 29.6059 25.0906 29.4605 24.9864 29.2849C24.9606 29.2424 24.9243 29.2073 24.8811 29.183C24.8378 29.1586 24.7889 29.1458 24.7392 29.1458C24.6896 29.1458 24.6407 29.1586 24.5974 29.183C24.5541 29.2073 24.5179 29.2424 24.4921 29.2849C24.3957 29.4433 24.2633 29.5767 24.1057 29.6743C23.9481 29.7719 23.7697 29.831 23.585 29.8468C23.4003 29.8625 23.2145 29.8345 23.0426 29.765C22.8707 29.6955 22.7177 29.5865 22.5958 29.4468C22.5522 29.396 22.5126 29.3419 22.4773 29.2849C22.4516 29.2424 22.4153 29.2073 22.372 29.183C22.3287 29.1586 22.2799 29.1458 22.2302 29.1458C22.1805 29.1458 22.1317 29.1586 22.0884 29.183C22.0451 29.2073 22.0088 29.2424 21.983 29.2849C21.8812 29.4614 21.7345 29.6078 21.5578 29.7093C21.3812 29.8108 21.1808 29.8639 20.9771 29.863C20.9393 29.8635 20.902 29.8714 20.8672 29.8862C20.6477 29.0207 20.537 28.1312 20.5377 27.2384C20.5377 23.8997 22.0495 20.879 24.2955 19.743C24.3092 19.735 24.3219 19.7253 24.3331 19.7141L24.3562 19.7372C24.8264 20.0982 25.4025 20.2938 25.9952 20.2938C26.5879 20.2938 27.1641 20.0982 27.6342 19.7372C27.6453 19.7486 27.6579 19.7583 27.6718 19.7661C28.0919 19.9873 28.4807 20.2633 28.828 20.587C28.3896 21.2332 27.7167 21.6832 26.952 21.8416C26.8776 21.8603 26.8138 21.9079 26.7745 21.9738C26.7352 22.0396 26.7237 22.1184 26.7424 22.1928C26.7612 22.2671 26.8088 22.331 26.8746 22.3703C26.9405 22.4096 27.0193 22.4211 27.0937 22.4023C27.9568 22.2148 28.7216 21.7182 29.2443 21.0062C30.6347 22.4602 31.4672 24.7524 31.4672 27.2268V27.2384ZM28.0158 19.2458C28.1518 19.0084 28.265 18.7587 28.354 18.5C28.3949 18.5221 28.4405 18.534 28.4869 18.5347C28.7773 18.4844 29.051 18.3643 29.2847 18.1849L29.3541 18.1445C29.3541 18.1965 29.3541 18.2485 29.3541 18.2977C29.4089 18.8851 29.3329 19.4774 29.1315 20.032C28.7916 19.7273 28.4171 19.4635 28.0158 19.2458ZM31.0712 17.549C30.9346 17.6202 30.7829 17.6573 30.6289 17.6573C30.4749 17.6573 30.3232 17.6202 30.1866 17.549C30.0832 17.4971 29.9718 17.4629 29.8571 17.4478C29.8195 17.1587 29.7762 16.8697 29.7328 16.5575C29.6952 16.306 29.6576 16.0459 29.6229 15.7857C29.575 15.2273 29.3123 14.7092 28.8902 14.3404C28.4681 13.9717 27.9194 13.781 27.3596 13.8085C27.2829 13.8085 27.2094 13.839 27.1552 13.8932C27.101 13.9474 27.0705 14.0209 27.0705 14.0976C27.0705 14.1742 27.101 14.2478 27.1552 14.302C27.2094 14.3562 27.2829 14.3866 27.3596 14.3866C27.7788 14.3619 28.191 14.5029 28.5073 14.7792C28.8236 15.0555 29.0187 15.445 29.0506 15.8638C29.0853 16.1239 29.1229 16.387 29.1604 16.6413C29.2038 16.9477 29.2472 17.2455 29.2819 17.5085C29.2558 17.5085 29.2269 17.5259 29.2009 17.5403C29.1749 17.5548 29.0708 17.6126 28.9841 17.6646C28.8337 17.762 28.6762 17.848 28.513 17.9219C28.565 17.7077 28.595 17.4888 28.6026 17.2686C28.5957 16.8732 28.4337 16.4964 28.1513 16.2194C27.869 15.9425 27.4891 15.7878 27.0937 15.7886C26.8908 15.788 26.6899 15.8291 26.5035 15.9091C26.3171 15.9891 26.149 16.1065 26.0097 16.254C25.8703 16.1065 25.7023 15.9891 25.5158 15.9091C25.3294 15.8291 25.1286 15.788 24.9257 15.7886C24.5268 15.7886 24.1441 15.9469 23.8618 16.2287C23.5794 16.5105 23.4204 16.8928 23.4197 17.2917C23.4272 17.512 23.4572 17.7309 23.5093 17.945C23.349 17.8707 23.1944 17.7847 23.0468 17.6877C22.9601 17.6357 22.882 17.5895 22.83 17.5634C22.7779 17.5374 22.7751 17.5432 22.749 17.5316C22.7866 17.2599 22.8271 16.9535 22.8733 16.6471C22.9109 16.3956 22.9456 16.1384 22.9832 15.8782C23.0143 15.4597 23.2088 15.0702 23.5247 14.7938C23.8405 14.5175 24.2524 14.3764 24.6713 14.4011C24.748 14.4011 24.8215 14.3706 24.8757 14.3164C24.9299 14.2622 24.9604 14.1887 24.9604 14.112C24.9604 14.0354 24.9299 13.9618 24.8757 13.9076C24.8215 13.8534 24.748 13.823 24.6713 13.823C24.1118 13.7955 23.5635 13.9863 23.1418 14.3551C22.7202 14.7239 22.4581 15.242 22.4108 15.8002C22.3733 16.0574 22.3357 16.3147 22.301 16.5662C22.2547 16.8784 22.2114 17.1848 22.1738 17.4623C22.0591 17.4774 21.9477 17.5116 21.8443 17.5634C21.7077 17.6346 21.556 17.6718 21.402 17.6718C21.248 17.6718 21.0963 17.6346 20.9597 17.5634C20.4163 17.2744 20.2255 16.4274 20.5695 15.7741L23.4341 8.89734C23.4341 8.89734 23.5266 8.68633 23.5613 8.60828C23.8141 8.18169 24.1735 7.82825 24.6044 7.58275C25.0352 7.33725 25.5225 7.20815 26.0183 7.20815C26.5142 7.20815 27.0015 7.33725 27.4323 7.58275C27.8631 7.82825 28.2226 8.18169 28.4754 8.60828C28.5101 8.67477 28.5997 8.88289 28.5997 8.88289L31.4903 15.7915C31.8054 16.413 31.6146 17.2541 31.0712 17.549Z" fill="#252B23"/>
<path d="M27.5012 8.45508C27.4966 8.39157 27.4712 8.33135 27.4288 8.28378C27.3865 8.23622 27.3296 8.20396 27.2671 8.19203C27.204 8.18024 27.1389 8.18975 27.0818 8.21905C27.0248 8.24836 26.9791 8.2958 26.952 8.35391C26.5357 9.25867 24.6106 10.0507 23.6682 10.0507C23.5916 10.045 23.5158 10.0699 23.4575 10.12C23.3992 10.1702 23.3633 10.2414 23.3575 10.3181C23.3518 10.3948 23.3767 10.4706 23.4268 10.5288C23.477 10.5871 23.5482 10.6231 23.6249 10.6288C23.6391 11.25 23.8912 11.842 24.3292 12.2827C24.7671 12.7234 25.3575 12.9793 25.9786 12.9974C26.5996 13.0156 27.204 12.7947 27.6669 12.3803C28.1299 11.966 28.4162 11.3897 28.4667 10.7705C28.5231 10.767 28.5772 10.7471 28.6225 10.7132C28.6677 10.6793 28.7019 10.6329 28.7211 10.5797C28.7347 10.5431 28.7407 10.5042 28.7388 10.4652C28.737 10.4262 28.7272 10.388 28.7102 10.3529C28.6932 10.3178 28.6693 10.2865 28.6398 10.2609C28.6104 10.2353 28.5761 10.2159 28.5389 10.2039C28.114 10.0536 27.5475 9.10547 27.5012 8.45508ZM26.0559 12.4152C25.5667 12.416 25.0972 12.223 24.75 11.8785C24.4027 11.534 24.2061 11.0659 24.203 10.5768C25.1425 10.4149 26.3883 9.88016 27.0936 9.1575C27.2634 9.65771 27.5509 10.1098 27.9319 10.4756C27.9194 10.5039 27.9125 10.5343 27.9117 10.5652C27.9136 10.8104 27.8668 11.0534 27.7739 11.2803C27.6811 11.5072 27.5441 11.7134 27.3709 11.8869C27.1977 12.0603 26.9917 12.1977 26.765 12.2908C26.5383 12.384 26.2953 12.4312 26.0501 12.4297L26.0559 12.4152Z" fill="#252B23"/>
</svg>
